<svg width="25" height="24" viewBox="0 0 25 24" fill="none" xmlns="http://www.w3.org/2000/svg">
<path d="M20.0992 10.1641H5.69922V16.8001C5.69922 18.126 6.77324 19.2001 8.09321 19.2001H17.6992C19.0192 19.2001 20.0992 18.126 20.0992 16.8001V10.1641ZM12.9232 16.2481H9.20928C8.87324 16.2481 8.60928 15.9841 8.60928 15.6481C8.60928 15.3181 8.87324 15.0481 9.20928 15.0481H12.9232C13.2533 15.0481 13.5232 15.3181 13.5232 15.6481C13.5232 15.9841 13.2533 16.2481 12.9232 16.2481ZM16.6372 13.1041H9.20928C8.87324 13.1041 8.60928 12.8341 8.60928 12.5041C8.60928 12.1741 8.87324 11.9041 9.20928 11.9041H16.6372C16.9672 11.9041 17.2372 12.1741 17.2372 12.5041C17.2372 12.8341 16.9672 13.1041 16.6372 13.1041Z" fill="#008643"/>
<path d="M20.0992 7.1998C20.0992 5.87379 19.0192 4.7998 17.6992 4.7998H8.09321C6.77324 4.7998 5.69922 5.87379 5.69922 7.1998V8.96381H20.0992V7.1998ZM8.83721 7.43381C8.51512 7.69109 8.19445 7.63707 7.99126 7.43381C7.77151 7.2142 7.7333 6.83947 7.99126 6.58182C8.17966 6.39337 8.49112 6.33929 8.74727 6.50979C8.97985 6.65003 9.15745 7.07821 8.83721 7.43381ZM11.0932 7.43381C10.7794 7.68444 10.4638 7.64465 10.2413 7.43381C9.98094 7.14475 10.0451 6.77771 10.2413 6.58182C10.4632 6.35979 10.8713 6.35979 11.0932 6.58182C11.294 6.7823 11.3572 7.1407 11.0932 7.43381ZM13.3492 7.43381C13.1513 7.63149 12.8225 7.69487 12.4973 7.43381C12.2683 7.19239 12.2625 6.82934 12.4973 6.58182C12.8194 6.32284 13.1432 6.37596 13.3492 6.58182C13.5739 6.80662 13.5873 7.18236 13.3492 7.43381Z" fill="#008643"/>
</svg>
