<svg width="25" height="24" viewBox="0 0 25 24" fill="none" xmlns="http://www.w3.org/2000/svg">
<g clip-path="url(#clip0_1587_17173)">
<path d="M18.353 0H7.44389C3.82894 0 0.898438 2.9305 0.898438 6.54545V17.4545C0.898438 21.0695 3.82894 24 7.44389 24H18.353C21.9679 24 24.8984 21.0695 24.8984 17.4545V6.54545C24.8984 2.9305 21.9679 0 18.353 0Z" fill="#FFF6EA"/>
<path d="M18.1172 13.2058C18.1172 14.0644 17.8839 14.7318 17.4172 15.2078C16.9505 15.6838 16.3299 15.9218 15.5552 15.9218C15.4339 15.9218 15.3405 15.9171 15.2752 15.9078V14.4238H15.4292C16.1665 14.4238 16.5352 14.0178 16.5352 13.2058C16.5352 12.6738 16.3345 12.2398 15.9332 11.9038C15.5412 11.5584 15.0045 11.3671 14.3232 11.3298V16.9998H12.7412V16.9858L12.7272 16.9998L8.44319 13.9198V12.2958C10.0112 10.9611 11.4439 10.1724 12.7412 9.92977V9.08977H7.61719V7.75977H18.9152V9.08977H14.3232V9.91577C15.3592 9.93443 16.2505 10.2471 16.9972 10.8538C17.7439 11.4511 18.1172 12.2351 18.1172 13.2058ZM12.7412 15.2498V11.3998C11.8452 11.6611 10.8885 12.2304 9.87119 13.1078L12.7412 15.2498Z" fill="#FAA82A"/>
</g>
<defs>
<clipPath id="clip0_1587_17173">
<rect width="24" height="24" fill="white" transform="translate(0.898438)"/>
</clipPath>
</defs>
</svg>
