<svg width="25" height="24" viewBox="0 0 25 24" fill="none" xmlns="http://www.w3.org/2000/svg">
<g clip-path="url(#clip0_1587_17210)">
<path d="M18.353 0H7.44389C3.82894 0 0.898438 2.9305 0.898438 6.54545V17.4545C0.898438 21.0695 3.82894 24 7.44389 24H18.353C21.9679 24 24.8984 21.0695 24.8984 17.4545V6.54545C24.8984 2.9305 21.9679 0 18.353 0Z" fill="#E6F3EC"/>
<g clip-path="url(#clip1_1587_17210)">
<path d="M18.7636 8.73923C18.5835 8.55927 18.2922 8.5595 18.1125 8.73923C18.0047 8.8469 17.8732 8.92321 17.7021 8.97998L15.9167 7.19462C15.9736 7.02353 16.0511 6.89405 16.1592 6.78594C16.3389 6.60622 16.3392 6.31488 16.1592 6.13492C15.9792 5.95497 15.6879 5.95508 15.5081 6.13492C15.0299 6.61307 14.8905 7.20553 14.8638 8.30548C14.8609 8.42947 14.908 8.5494 14.9946 8.63817C15.0812 8.72697 15.2 8.77732 15.3241 8.77732H15.3667C15.5957 8.77732 15.7818 8.59253 15.7836 8.36358L16.5331 9.11306C16.3122 9.11723 16.07 9.11833 15.7821 9.11577L14.8599 9.10316C13.7199 9.08518 12.0226 8.97638 10.9476 10.0513C10.2398 10.7592 10.0325 11.814 9.98941 12.9069C9.98458 13.0309 10.0304 13.1515 10.1163 13.241C10.2023 13.3303 10.321 13.3812 10.4451 13.3812H10.4551C10.7011 13.3812 10.9023 13.1862 10.9105 12.9403C10.9176 12.7289 10.9313 12.5226 10.9539 12.3236C11.3345 12.7041 12.1083 13.478 12.576 13.9457C12.0182 14.0053 11.4337 13.9838 10.9224 13.9761L10.0014 13.9633C8.17111 13.9448 7.62834 14.0147 7.0334 14.6096C6.85356 14.7895 6.85333 15.0808 7.0334 15.2607C7.21324 15.4407 7.5047 15.4406 7.68442 15.2607C7.8028 15.1424 7.92394 15.0596 8.09771 15.0017L9.88183 16.7857C9.82362 16.958 9.74639 17.1053 9.63771 17.214C9.45787 17.3937 9.45775 17.6852 9.63771 17.8651C9.81766 18.045 10.109 18.0449 10.2887 17.8651C10.7806 17.3733 10.9199 16.5827 10.9443 15.6914C10.9476 15.5683 10.9011 15.4492 10.8153 15.361C10.7295 15.2728 10.6117 15.2227 10.4886 15.2227H10.4367C10.2118 15.2227 10.029 15.4036 10.0266 15.6284L9.28142 14.8832C9.49294 14.8808 9.7335 14.8815 10.014 14.8844L10.9353 14.897C12.0802 14.9145 13.7752 15.0228 14.8472 13.9508C15.5987 13.1993 15.7819 11.9017 15.8037 10.8401C15.8091 10.5817 15.6023 10.3684 15.3438 10.3684C15.0947 10.3684 14.8892 10.5669 14.8857 10.8159C14.8829 11.0083 14.8733 11.4383 14.8492 11.6613C14.3703 11.1825 13.807 10.619 13.2406 10.0526C13.7936 9.99531 14.3706 10.0163 14.8733 10.0242L15.7949 10.037C17.405 10.0519 18.1742 9.97971 18.7637 9.39039C18.9433 9.21049 18.9434 8.91915 18.7636 8.73923ZM14.5904 12.7048C14.4867 12.9389 14.3574 13.1384 14.1959 13.2998C14.0293 13.4664 13.83 13.5867 13.6157 13.6833L11.2136 11.2811C11.311 11.063 11.4347 10.8664 11.5986 10.7025C11.7698 10.5313 11.9748 10.4078 12.1957 10.31C12.9962 11.1104 13.9187 12.0331 14.5904 12.7048Z" fill="#008643"/>
</g>
</g>
<defs>
<clipPath id="clip0_1587_17210">
<rect width="24" height="24" fill="white" transform="translate(0.898438)"/>
</clipPath>
<clipPath id="clip1_1587_17210">
<rect width="12" height="12" fill="white" transform="translate(6.89844 6)"/>
</clipPath>
</defs>
</svg>
