<svg width="23" height="22" viewBox="0 0 23 22" fill="none" xmlns="http://www.w3.org/2000/svg">
<g clip-path="url(#clip0_1587_17203)">
<path d="M16.8984 0H6.89844C3.58473 0 0.898438 2.68629 0.898438 6V16C0.898438 19.3137 3.58473 22 6.89844 22H16.8984C20.2121 22 22.8984 19.3137 22.8984 16V6C22.8984 2.68629 20.2121 0 16.8984 0Z" fill="#EAF7FF"/>
<path d="M6.3144 15.0057H5.96094C5.96175 15.4734 6.14802 15.9217 6.47889 16.2523C6.80976 16.5829 7.25822 16.7687 7.72594 16.7691V16.4164C7.72594 16.3228 7.76314 16.233 7.82935 16.1668C7.89557 16.1006 7.98537 16.0634 8.07901 16.0634C8.17266 16.0634 8.26246 16.1006 8.32868 16.1668C8.39489 16.233 8.43209 16.3228 8.43209 16.4164V16.7691H9.13748V16.4164C9.13748 16.3228 9.17468 16.233 9.24089 16.1668C9.3071 16.1006 9.39691 16.0634 9.49055 16.0634C9.58419 16.0634 9.674 16.1006 9.74022 16.1668C9.80643 16.233 9.84363 16.3228 9.84363 16.4164V16.7691H10.5498V16.4164C10.5498 16.3229 10.5869 16.2332 10.6531 16.1671C10.7192 16.1009 10.8089 16.0638 10.9025 16.0638C10.996 16.0638 11.0857 16.1009 11.1519 16.1671C11.218 16.2332 11.2552 16.3229 11.2552 16.4164V16.7691H11.9613V16.4164C11.9613 16.3228 11.9985 16.233 12.0647 16.1668C12.131 16.1006 12.2208 16.0634 12.3144 16.0634C12.408 16.0634 12.4978 16.1006 12.5641 16.1668C12.6303 16.233 12.6675 16.3228 12.6675 16.4164V16.7691H13.3729V16.4164C13.3729 16.3701 13.382 16.3242 13.3997 16.2813C13.4175 16.2385 13.4435 16.1996 13.4763 16.1668C13.5091 16.134 13.548 16.108 13.5908 16.0902C13.6337 16.0725 13.6796 16.0634 13.7259 16.0634C13.7723 16.0634 13.8182 16.0725 13.8611 16.0902C13.9039 16.108 13.9428 16.134 13.9756 16.1668C14.0084 16.1996 14.0344 16.2385 14.0521 16.2813C14.0699 16.3242 14.079 16.3701 14.079 16.4164V16.7691H14.7852V16.4164C14.7852 16.3229 14.8223 16.2332 14.8885 16.1671C14.9546 16.1009 15.0443 16.0638 15.1379 16.0638C15.2314 16.0638 15.3211 16.1009 15.3873 16.1671C15.4534 16.2332 15.4906 16.3229 15.4906 16.4164V16.7691H15.9041C16.8505 16.7691 17.3187 15.6271 16.6534 14.9618L7.76906 6.07826C7.10218 5.41137 5.96094 5.88266 5.96094 6.82676V7.24029H6.3144C6.40804 7.24029 6.49785 7.27749 6.56406 7.3437C6.63028 7.40992 6.66748 7.49973 6.66748 7.59337C6.66748 7.68701 6.63028 7.77682 6.56406 7.84303C6.49785 7.90925 6.40804 7.94644 6.3144 7.94644H5.96094V8.65183H6.3144C6.40804 8.65183 6.49785 8.68903 6.56406 8.75524C6.63028 8.82146 6.66748 8.91126 6.66748 9.00491C6.66748 9.09855 6.63028 9.18835 6.56406 9.25457C6.49785 9.32078 6.40804 9.35798 6.3144 9.35798H5.96094V10.0641H6.3144C6.40794 10.0641 6.49765 10.1013 6.56379 10.1674C6.62993 10.2336 6.66709 10.3233 6.66709 10.4168C6.66709 10.5104 6.62993 10.6001 6.56379 10.6662C6.49765 10.7324 6.40794 10.7695 6.3144 10.7695H5.96094V11.4757H6.3144C6.40804 11.4757 6.49785 11.5129 6.56406 11.5791C6.63028 11.6453 6.66748 11.7351 6.66748 11.8288C6.66748 11.9224 6.63028 12.0122 6.56406 12.0784C6.49785 12.1446 6.40804 12.1818 6.3144 12.1818H5.96094V12.8872H6.3144C6.40804 12.8872 6.49785 12.9244 6.56406 12.9906C6.63028 13.0568 6.66748 13.1466 6.66748 13.2403C6.66748 13.3339 6.63028 13.4237 6.56406 13.49C6.49785 13.5562 6.40804 13.5934 6.3144 13.5934H5.96094V14.2995H6.3144C6.40794 14.2995 6.49765 14.3367 6.56379 14.4028C6.62993 14.469 6.66709 14.5587 6.66709 14.6522C6.66709 14.7458 6.62993 14.8355 6.56379 14.9016C6.49765 14.9677 6.40794 15.0057 6.3144 15.0057ZM8.43209 10.49C8.43257 10.4554 8.44317 10.4217 8.46256 10.3931C8.48196 10.3645 8.50931 10.3422 8.54125 10.3289C8.57318 10.3156 8.6083 10.312 8.64227 10.3185C8.67624 10.3249 8.70758 10.3412 8.73242 10.3652L12.3656 13.9984C12.3897 14.0233 12.4059 14.0546 12.4124 14.0886C12.4188 14.1225 12.4152 14.1577 12.402 14.1896C12.3887 14.2215 12.3664 14.2489 12.3377 14.2683C12.3091 14.2877 12.2754 14.2983 12.2409 14.2988H8.78478C8.69138 14.2988 8.60179 14.2617 8.53566 14.1957C8.46954 14.1297 8.4323 14.0402 8.43209 13.9468V10.49ZM12.7091 5.3721C12.5104 5.17385 12.2412 5.0625 11.9606 5.0625C11.6799 5.0625 11.4107 5.17385 11.212 5.3721L10.7985 5.78563C10.6 5.98432 10.4885 6.25367 10.4885 6.53452C10.4885 6.81537 10.6 7.08473 10.7985 7.28341L15.7401 12.2242C15.9372 12.4213 16.2098 12.5345 16.4886 12.5345H17.4311C17.5716 12.5343 17.7062 12.4784 17.8055 12.3791C17.9048 12.2798 17.9607 12.1452 17.9609 12.0047V11.0629C17.9609 10.7803 17.8508 10.5139 17.6506 10.3144L12.7091 5.3721ZM11.9613 7.44744L11.2991 6.78441C11.2662 6.75164 11.2401 6.7127 11.2222 6.66982C11.2044 6.62693 11.1953 6.58096 11.1953 6.53452C11.1953 6.48809 11.2044 6.44211 11.2222 6.39923C11.2401 6.35635 11.2662 6.3174 11.2991 6.28463L11.7118 5.87111C11.7446 5.83832 11.7835 5.81232 11.8263 5.79457C11.8691 5.77683 11.915 5.76769 11.9613 5.76769C12.0077 5.76769 12.0536 5.77683 12.0964 5.79457C12.1392 5.81232 12.1781 5.83832 12.2108 5.87111L12.8739 6.53414L11.9613 7.44744Z" fill="#0992E2"/>
</g>
<defs>
<clipPath id="clip0_1587_17203">
<rect width="22" height="22" fill="white" transform="translate(0.898438)"/>
</clipPath>
</defs>
</svg>
