<svg width="23" height="22" viewBox="0 0 23 22" fill="none" xmlns="http://www.w3.org/2000/svg">
<g clip-path="url(#clip0_1587_17187)">
<path d="M16.8984 0H6.89844C3.58473 0 0.898438 2.68629 0.898438 6V16C0.898438 19.3137 3.58473 22 6.89844 22H16.8984C20.2121 22 22.8984 19.3137 22.8984 16V6C22.8984 2.68629 20.2121 0 16.8984 0Z" fill="#FEECEF"/>
<path d="M16.1336 5H7.66332C7.19537 5.00041 6.7467 5.18648 6.41581 5.51737C6.08492 5.84827 5.89885 6.29693 5.89844 6.76489V15.2351C5.89885 15.7031 6.08492 16.1517 6.41581 16.4826C6.7467 16.8135 7.19537 16.9996 7.66332 17H16.1336C16.6015 16.9996 17.0502 16.8135 17.3811 16.4826C17.712 16.1517 17.898 15.7031 17.8984 15.2351V6.76489C17.898 6.29693 17.712 5.84827 17.3811 5.51737C17.0502 5.18648 16.6015 5.00041 16.1336 5ZM9.78088 15.4122H8.36943C8.2759 15.4122 8.1862 15.3751 8.12006 15.3089C8.05392 15.2428 8.01676 15.1531 8.01676 15.0595C8.01676 14.966 8.05392 14.8763 8.12006 14.8102C8.1862 14.744 8.2759 14.7069 8.36943 14.7069H9.78088C9.87441 14.7069 9.96412 14.744 10.0303 14.8102C10.0964 14.8763 10.1336 14.966 10.1336 15.0595C10.1336 15.1531 10.0964 15.2428 10.0303 15.3089C9.96412 15.3751 9.87441 15.4122 9.78088 15.4122ZM9.78088 14.3534H8.36943C8.2759 14.3534 8.1862 14.3163 8.12006 14.2501C8.05392 14.184 8.01676 14.0943 8.01676 14.0008C8.01676 13.9072 8.05392 13.8175 8.12006 13.7514C8.1862 13.6853 8.2759 13.6481 8.36943 13.6481H9.78088C9.87441 13.6481 9.96412 13.6853 10.0303 13.7514C10.0964 13.8175 10.1336 13.9072 10.1336 14.0008C10.1336 14.0943 10.0964 14.184 10.0303 14.2501C9.96412 14.3163 9.87441 14.3534 9.78088 14.3534ZM15.5006 14.8101C15.5334 14.8428 15.5593 14.8817 15.5771 14.9245C15.5948 14.9673 15.6039 15.0132 15.6039 15.0595C15.6039 15.1059 15.5948 15.1518 15.5771 15.1946C15.5593 15.2374 15.5334 15.2763 15.5006 15.309C15.4678 15.3418 15.4289 15.3678 15.3861 15.3855C15.3433 15.4032 15.2974 15.4124 15.2511 15.4124C15.2048 15.4124 15.1589 15.4032 15.1161 15.3855C15.0733 15.3678 15.0344 15.3418 15.0016 15.309L14.7221 15.0295L14.4418 15.309C14.3756 15.3752 14.2859 15.4124 14.1923 15.4124C14.0988 15.4124 14.009 15.3752 13.9428 15.309C13.8767 15.2429 13.8395 15.1531 13.8395 15.0595C13.8395 14.966 13.8767 14.8762 13.9428 14.8101L14.2231 14.5298L13.9428 14.2503C13.9101 14.2175 13.8841 14.1786 13.8664 14.1358C13.8486 14.093 13.8395 14.0471 13.8395 14.0008C13.8395 13.9544 13.8486 13.9086 13.8664 13.8657C13.8841 13.8229 13.9101 13.784 13.9428 13.7513C13.9756 13.7185 14.0145 13.6925 14.0573 13.6748C14.1001 13.6571 14.146 13.6479 14.1923 13.6479C14.2387 13.6479 14.2845 13.6571 14.3273 13.6748C14.3702 13.6925 14.4091 13.7185 14.4418 13.7513L14.7221 14.0308L15.0016 13.7513C15.0678 13.6851 15.1575 13.6479 15.2511 13.6479C15.3447 13.6479 15.4344 13.6851 15.5006 13.7513C15.5668 13.8175 15.6039 13.9072 15.6039 14.0008C15.6039 14.0943 15.5668 14.1841 15.5006 14.2503L15.2211 14.5298L15.5006 14.8101ZM12.2511 8.53054V12.0595H16.8397C16.9333 12.0595 17.0231 12.0967 17.0893 12.163C17.1555 12.2292 17.1927 12.319 17.1927 12.4126C17.1927 12.5062 17.1555 12.596 17.0893 12.6623C17.0231 12.7285 16.9333 12.7657 16.8397 12.7657H12.2511V15.942C12.2511 16.0355 12.214 16.1252 12.1478 16.1914C12.0817 16.2575 11.992 16.2947 11.8984 16.2947C11.8049 16.2947 11.7152 16.2575 11.6491 16.1914C11.5829 16.1252 11.5458 16.0355 11.5458 15.942V12.7657H6.95722C6.86358 12.7657 6.77378 12.7285 6.70757 12.6623C6.64136 12.596 6.60416 12.5062 6.60416 12.4126C6.60416 12.319 6.64136 12.2292 6.70757 12.163C6.77378 12.0967 6.86358 12.0595 6.95722 12.0595H11.5458V8.52977H6.95722C6.86358 8.52977 6.77378 8.49258 6.70757 8.42637C6.64136 8.36016 6.60416 8.27036 6.60416 8.17672C6.60416 8.08308 6.64136 7.99328 6.70757 7.92707C6.77378 7.86086 6.86358 7.82367 6.95722 7.82367H16.8397C16.9333 7.82367 17.0231 7.86086 17.0893 7.92707C17.1555 7.99328 17.1927 8.08308 17.1927 8.17672C17.1927 8.27036 17.1555 8.36016 17.0893 8.42637C17.0231 8.49258 16.9333 8.52977 16.8397 8.52977H12.2511V8.53054ZM15.7809 10.2947C15.781 10.3411 15.7719 10.3871 15.7542 10.43C15.7365 10.473 15.7104 10.512 15.6776 10.5448C15.6447 10.5776 15.6057 10.6037 15.5628 10.6214C15.5199 10.6391 15.4739 10.6482 15.4274 10.6481H14.016C13.9224 10.6481 13.8326 10.6109 13.7663 10.5447C13.7001 10.4785 13.6629 10.3887 13.6629 10.295C13.6629 10.2014 13.7001 10.1116 13.7663 10.0454C13.8326 9.97919 13.9224 9.94199 14.016 9.94199H15.4274C15.623 9.94199 15.7809 10.0998 15.7809 10.2947ZM9.78088 9.94199C9.87452 9.94199 9.96432 9.97919 10.0305 10.0454C10.0967 10.1116 10.1339 10.2014 10.1339 10.295C10.1339 10.3887 10.0967 10.4785 10.0305 10.5447C9.96432 10.6109 9.87452 10.6481 9.78088 10.6481H9.42821V11C9.42821 11.0936 9.39101 11.1834 9.3248 11.2496C9.25859 11.3159 9.16879 11.3531 9.07516 11.3531C8.98152 11.3531 8.89172 11.3159 8.82551 11.2496C8.7593 11.1834 8.7221 11.0936 8.7221 11V10.6473H8.36943C8.2758 10.6473 8.186 10.6101 8.11979 10.5439C8.05358 10.4777 8.01638 10.3879 8.01638 10.2943C8.01638 10.2006 8.05358 10.1108 8.11979 10.0446C8.186 9.97842 8.2758 9.94122 8.36943 9.94122H8.7221V9.58855C8.7221 9.49492 8.7593 9.40512 8.82551 9.33891C8.89172 9.27269 8.98152 9.2355 9.07516 9.2355C9.16879 9.2355 9.25859 9.27269 9.3248 9.33891C9.39101 9.40512 9.42821 9.49492 9.42821 9.58855V9.94122H9.78088V9.94199Z" fill="#FC465D"/>
</g>
<defs>
<clipPath id="clip0_1587_17187">
<rect width="22" height="22" fill="white" transform="translate(0.898438)"/>
</clipPath>
</defs>
</svg>
