<svg width="21" height="20" viewBox="0 0 21 20" fill="none" xmlns="http://www.w3.org/2000/svg">
<path d="M8.3995 18.3333L8.19064 15.4093C8.07834 13.8372 9.32343 12.5 10.8995 12.5C12.4756 12.5 13.7207 13.8372 13.6084 15.4093L13.3995 18.3333" stroke="#575757" stroke-width="1.5"/>
<path d="M2.85923 11.011C2.56505 9.09671 2.41796 8.13953 2.77988 7.29098C3.1418 6.44244 3.94476 5.86186 5.55069 4.70072L6.75056 3.83317C8.74831 2.38873 9.74719 1.6665 10.8997 1.6665C12.0523 1.6665 13.0512 2.38873 15.0489 3.83317L16.2488 4.70072C17.8547 5.86186 18.6577 6.44244 19.0196 7.29098C19.3815 8.13953 19.2344 9.0967 18.9402 11.011L18.6894 12.6435C18.2723 15.3573 18.0638 16.7142 17.0906 17.5237C16.1173 18.3332 14.6945 18.3332 11.8488 18.3332H9.95073C7.10502 18.3332 5.68216 18.3332 4.70891 17.5237C3.73565 16.7142 3.52713 15.3573 3.1101 12.6435L2.85923 11.011Z" stroke="#575757" stroke-width="1.5" stroke-linejoin="round"/>
</svg>
