<svg width="24" height="25" viewBox="0 0 24 25" fill="none" xmlns="http://www.w3.org/2000/svg">
<circle cx="7.5" cy="8" r="1.5" stroke="#1C1C1C" stroke-width="1.5" stroke-linecap="round" stroke-linejoin="round"/>
<path d="M2.5 12.5C2.5 8.02166 2.5 5.78249 3.89124 4.39124C5.28249 3 7.52166 3 12 3C16.4783 3 18.7175 3 20.1088 4.39124C21.5 5.78249 21.5 8.02166 21.5 12.5C21.5 16.9783 21.5 19.2175 20.1088 20.6088C18.7175 22 16.4783 22 12 22C7.52166 22 5.28249 22 3.89124 20.6088C2.5 19.2175 2.5 16.9783 2.5 12.5Z" stroke="#1C1C1C" stroke-width="1.5"/>
<path d="M5 21.4999C9.37246 16.275 14.2741 9.384 21.4975 14.0424" stroke="#1C1C1C" stroke-width="1.5"/>
</svg>
