<svg width="17" height="17" viewBox="0 0 17 17" fill="none" xmlns="http://www.w3.org/2000/svg">
<path d="M1.5 5.16667C1.5 4.23325 1.5 3.76654 1.68166 3.41002C1.84144 3.09641 2.09641 2.84144 2.41002 2.68166C2.76654 2.5 3.23325 2.5 4.16667 2.5C5.10009 2.5 5.5668 2.5 5.92332 2.68166C6.23692 2.84144 6.49189 3.09641 6.65168 3.41002C6.83333 3.76654 6.83333 4.23325 6.83333 5.16667V11.8333C6.83333 12.7668 6.83333 13.2335 6.65168 13.59C6.49189 13.9036 6.23692 14.1586 5.92332 14.3183C5.5668 14.5 5.10009 14.5 4.16667 14.5C3.23325 14.5 2.76654 14.5 2.41002 14.3183C2.09641 14.1586 1.84144 13.9036 1.68166 13.59C1.5 13.2335 1.5 12.7668 1.5 11.8333V5.16667Z" stroke="#0992E2" stroke-width="0.875" stroke-linecap="round" stroke-linejoin="round"/>
<path d="M4.16797 11.8333H4.17396" stroke="#0992E2" stroke-width="1.16667" stroke-linecap="round" stroke-linejoin="round"/>
<path d="M1.5 5.16675H6.83333" stroke="#0992E2" stroke-width="0.875" stroke-linecap="round" stroke-linejoin="round"/>
<path d="M7.79909 6.01228C7.56248 5.12559 7.44418 4.68224 7.52566 4.29733C7.59733 3.95875 7.7739 3.65164 8.03006 3.42003C8.32128 3.15672 8.76279 3.03793 9.6458 2.80034C10.5288 2.56275 10.9703 2.44395 11.3536 2.52577C11.6908 2.59773 11.9966 2.77504 12.2273 3.03227C12.4895 3.32471 12.6078 3.76806 12.8444 4.65476L14.5342 10.9877C14.7708 11.8744 14.8892 12.3178 14.8077 12.7027C14.736 13.0413 14.5594 13.3484 14.3033 13.58C14.0121 13.8433 13.5705 13.9621 12.6875 14.1997C11.8045 14.4373 11.363 14.556 10.9797 14.4742C10.6425 14.4023 10.3367 14.225 10.1061 13.9677C9.84385 13.6753 9.72555 13.2319 9.48894 12.3452L7.79909 6.01228Z" stroke="#0992E2" stroke-width="0.875" stroke-linecap="round" stroke-linejoin="round"/>
<path d="M12.0195 11.6304L12.0253 11.6288" stroke="#0992E2" stroke-width="1.16667" stroke-linecap="round" stroke-linejoin="round"/>
<path d="M8.16797 5.83346L12.5014 4.5" stroke="#0992E2" stroke-width="0.875" stroke-linecap="round" stroke-linejoin="round"/>
</svg>
