<svg width="41" height="50" viewBox="0 0 41 50" fill="none" xmlns="http://www.w3.org/2000/svg">
<g clip-path="url(#clip0_1392_21245)">
<path d="M9.45588 49.3902C9.79116 49.6395 10.2554 49.5707 10.4961 49.244C12.7141 46.2437 18.6546 47.0346 21.7324 42.8823C24.0707 39.7272 22.1106 35.1278 20.9844 34.0876C20.95 34.0446 20.907 34.0102 20.8727 33.9844C20.5374 33.7351 20.0731 33.8039 19.8324 34.1306C19.7035 34.3111 19.6605 34.5346 19.7121 34.7581C19.9356 35.6006 20.0302 37.6381 19.1705 38.7987C17.7606 40.6986 15.4394 40.0625 15.4394 40.0625C18.5945 37.9562 15.4738 35.1106 16.9009 31.7664C17.0384 31.4483 16.9438 31.0786 16.6601 30.8637C16.5312 30.7691 16.3764 30.7176 16.2217 30.7176C16.2045 30.7176 16.1873 30.7176 16.1701 30.7176C16.024 30.709 12.2843 30.4854 9.69659 33.9672C8.63917 35.3943 7.55595 38.3689 7.27225 39.8389C7.19487 40.1312 7.30664 40.4493 7.55595 40.6299C7.84824 40.8448 8.2437 40.8276 8.51021 40.5869C8.51021 40.5869 9.688 39.581 11.1151 39.6068C9.04322 42.4008 8.95725 46.8025 9.15498 48.7884C9.15498 48.8228 9.15498 48.8572 9.15498 48.8916C9.18078 49.0893 9.29254 49.2698 9.45588 49.3902Z" fill="#AB475F"/>
<path d="M9.90361 50.0003C9.65429 50.0003 9.39638 49.9229 9.18146 49.7596C8.92355 49.5619 8.74301 49.2696 8.70003 48.9515C8.70003 48.9085 8.69143 48.8569 8.69143 48.8139C8.63125 48.1777 8.27878 43.6042 10.1787 40.2084C9.44797 40.4319 8.90636 40.8617 8.82039 40.9305C8.39914 41.326 7.74577 41.3603 7.28153 41.0079C6.88607 40.7156 6.70553 40.2256 6.82589 39.7527V39.7097C7.13538 38.1967 8.2186 35.1963 9.33621 33.6833C11.9755 30.1155 15.8011 30.2273 16.188 30.2445C16.2052 30.2445 16.2224 30.2445 16.2396 30.2445C16.4975 30.2445 16.7382 30.3304 16.9445 30.4852C17.297 30.7431 17.4689 31.1557 17.4346 31.5684L17.4775 31.6028L17.34 31.9381C16.7812 33.2448 16.9875 34.4914 17.1938 35.6949C17.426 37.0619 17.6581 38.4718 16.5835 39.6925C17.2626 39.6496 18.1567 39.4088 18.8187 38.5148C19.5666 37.5089 19.4892 35.6434 19.2829 34.8696L19.2227 34.6547L19.2399 34.6289C19.2227 34.3538 19.3087 34.0787 19.472 33.8552C19.8675 33.3222 20.624 33.2104 21.157 33.6145C21.2172 33.6575 21.2774 33.709 21.329 33.7692C21.9566 34.3624 22.7733 35.8583 23.1258 37.6035C23.4266 39.1079 23.504 41.2916 22.1199 43.1571C20.3661 45.5213 17.744 46.3638 15.4315 47.1031C13.5745 47.6963 11.8121 48.2637 10.8837 49.5189C10.6515 49.837 10.2905 50.0003 9.9208 50.0003H9.90361ZM9.73167 49.0203C9.86062 49.1148 10.0326 49.089 10.1271 48.9687C11.2361 47.4728 13.1275 46.8624 15.1392 46.2262C17.426 45.4955 19.7901 44.7304 21.3634 42.6155C23.504 39.7269 21.6729 35.3597 20.6756 34.4398L20.6412 34.4054C20.6412 34.4054 20.6154 34.3796 20.5982 34.3624C20.4693 34.2678 20.2973 34.2936 20.2028 34.414C20.1512 34.4828 20.1426 34.5601 20.1598 34.6461L20.2114 34.8352C20.4091 35.8153 20.4779 37.827 19.5494 39.0736C17.9676 41.2056 15.4315 40.535 15.3283 40.5092L14.3482 40.2427L15.1907 39.6839C16.7382 38.6523 16.5491 37.4831 16.274 35.8669C16.0762 34.6891 15.8527 33.3652 16.3513 31.9381H16.3341L16.4803 31.5942C16.5319 31.4738 16.4889 31.3363 16.3857 31.2503C16.3341 31.2159 16.274 31.1987 16.2138 31.1901H16.1966H16.1708H16.145C15.9989 31.1815 12.4999 30.9838 10.0755 34.2592C9.0611 35.6262 7.99508 38.5921 7.72857 39.9418V39.9934C7.69418 40.0966 7.73717 40.217 7.83173 40.2771C7.9349 40.3545 8.07245 40.3545 8.16702 40.2771L8.2014 40.2427C8.25299 40.1998 9.53394 39.1251 11.1158 39.1509L12.0099 39.1681L11.4769 39.8903C10.5742 41.1024 9.17286 44.3349 9.60271 48.7537V48.7967C9.60271 48.7967 9.60271 48.8225 9.60271 48.8311C9.61131 48.9085 9.65429 48.9773 9.71447 49.0289L9.73167 49.0203Z" fill="black"/>
<path d="M8.62313 40.2509C8.68331 40.1993 9.51721 39.5115 10.5918 39.3826C10.7552 39.3654 10.8669 39.5459 10.7724 39.6835C9.10456 42.2368 9.03578 45.9936 9.20772 47.7388C9.20772 47.7732 9.20772 47.799 9.20772 47.8334C9.23352 48.0139 9.37966 48.8049 9.52581 48.9166C9.82671 49.1401 10.205 48.461 10.4285 48.1601C12.4574 45.4262 17.8735 46.1398 20.6761 42.3571C22.8081 39.4857 21.02 35.2818 19.9969 34.3361C19.9625 34.3018 19.9282 34.2674 19.8938 34.2416C19.5929 34.0181 19.163 34.0782 18.9481 34.3791C18.8277 34.5425 18.7848 34.7488 18.8363 34.9465C19.0427 35.7117 19.1286 37.5686 18.3463 38.626C17.435 39.8554 16.1111 39.9242 15.4061 39.8554C15.2342 39.8382 15.1654 39.6233 15.303 39.5115C17.564 37.6202 15.0365 35.1271 16.2744 32.2127C16.4034 31.9204 16.3088 31.5851 16.0509 31.396C15.9392 31.31 15.793 31.267 15.6555 31.2584C15.6383 31.2584 15.6211 31.2584 15.6125 31.2584C15.4835 31.2498 12.0619 31.0435 9.70635 34.2244C8.74349 35.5225 7.93537 37.7835 7.67746 39.1247C7.67746 39.1247 7.45394 38.5401 7.51412 38.9785C7.5829 39.4857 7.35938 39.0301 7.35938 39.0387L7.76343 40.1305C7.92677 40.4486 8.35662 40.5174 8.61453 40.2767L8.62313 40.2509Z" fill="#FC465D"/>
<path d="M11.993 44.8072C12.3283 45.0565 12.7925 44.9877 13.0332 44.661C15.2512 41.6607 21.1918 42.4516 24.2695 38.2993C26.6078 35.1442 24.6477 30.5448 23.5215 29.5046C23.4871 29.4616 23.4442 29.4272 23.4098 29.4014C23.0745 29.1521 22.6103 29.2209 22.3695 29.5475C22.2406 29.7281 22.1976 29.9516 22.2492 30.1751C22.4727 31.0176 22.5673 33.0551 21.7076 34.2157C20.2977 36.1156 17.9765 35.4795 17.9765 35.4795C21.1316 33.3732 18.0109 30.5276 19.438 27.1834C19.5755 26.8653 19.481 26.4956 19.1973 26.2807C19.0683 26.1861 18.9136 26.1346 18.7588 26.1346C18.7416 26.1346 18.7244 26.1346 18.7072 26.1346C18.5611 26.126 14.8214 25.9024 12.2337 29.3842C11.1763 30.8113 10.0931 33.7859 9.80936 35.2559C9.73198 35.5482 9.84374 35.8663 10.0931 36.0469C10.3854 36.2618 10.7808 36.2446 11.0473 36.0039C11.0473 36.0039 12.2251 34.998 13.6522 35.0238C11.5803 37.8178 11.4944 42.2195 11.6921 44.2054C11.6921 44.2398 11.6921 44.2742 11.6921 44.3086C11.7179 44.5063 11.8296 44.6868 11.993 44.8072Z" fill="black"/>
<path d="M34.9224 13.979L29.4102 10.3291L14.0608 33.5106L19.5731 37.1605L34.9224 13.979Z" fill="black"/>
<path d="M38.9956 0.154297C38.9956 0.205879 38.9956 0.205879 38.9956 0.154297L37.4481 6.00884L34.1641 3.80801L38.9956 0.154297Z" fill="#030325"/>
<path d="M16.4987 30.0115L13.7305 28.507L26.2477 9.87735L32.4891 6.22363L16.4987 30.0115Z" fill="black"/>
<path d="M20.5742 32.6498L23.033 34.6013L34.8796 15.6708L36.2121 8.62988L20.5742 32.6498Z" fill="black"/>
<path d="M35.1894 5.75098L17.8235 31.9803L15.6484 30.5361L29.6873 8.44183L35.1894 5.75098Z" fill="#0992E2"/>
<path d="M35.1693 11.4427L20.2278 34.0098L18.0527 32.5655L35.4186 6.34473L35.1693 11.4427Z" fill="#0992E2"/>
<mask id="mask0_1392_21245" style="mask-type:luminance" maskUnits="userSpaceOnUse" x="26" y="3" width="12" height="13">
<path d="M26.1016 10.0927L26.2477 9.8778L34.5954 3.44727C34.8963 4.02326 35.3519 4.4961 35.9107 4.81418C36.4179 5.20965 37.0369 5.45036 37.6731 5.51054L34.8791 15.6722L34.7329 15.8871C34.3976 15.9473 34.0452 15.8785 33.7701 15.6808C32.876 15.0876 33.4606 14.2193 32.5579 13.6261C31.6552 13.0329 31.0964 13.884 30.2023 13.2908C29.3082 12.6976 29.9014 11.8293 29.0073 11.2361C28.1133 10.6429 27.5373 11.5026 26.6518 10.9008C26.3681 10.7117 26.1703 10.4194 26.1102 10.0841L26.1016 10.0927Z" fill="white"/>
</mask>
<g mask="url(#mask0_1392_21245)">
<path d="M33.7614 15.9468L32.4805 15.0871L37.673 7.3584V15.9468H33.7614Z" fill="#EBD9B3"/>
<path d="M32.4793 15.0875L32.4277 15.0531L37.6719 7.24707V7.35883L32.4793 15.0875Z" fill="#EBD9B3"/>
<path d="M32.4285 15.0536L32.377 15.0192L37.6727 7.13574V7.2475L32.4285 15.0536Z" fill="#EAD8B2"/>
<path d="M32.3778 15.0194L32.3262 14.9764L37.6735 7.01562V7.13598L32.3778 15.0194Z" fill="#E9D7B1"/>
<path d="M32.325 14.9749L32.2734 14.9405L37.6723 6.90234V7.0141L32.325 14.9749Z" fill="#E9D6B0"/>
<path d="M32.2723 14.9419L32.2207 14.9075L37.6712 6.79199V6.90375L32.2723 14.9419Z" fill="#E8D6AF"/>
<path d="M32.2235 14.9067L32.1719 14.8724L37.6739 6.67944V6.7912L32.2235 14.9067Z" fill="#E7D5AE"/>
<path d="M32.1715 14.8721L32.1113 14.8377L37.6736 6.56738V6.67914L32.1715 14.8721Z" fill="#E6D4AD"/>
<path d="M32.1102 14.8381L32.0586 14.8037L37.6724 6.45605V6.56782L32.1102 14.8381Z" fill="#E5D3AC"/>
<path d="M32.0574 14.8039L32.0059 14.7695L37.6713 6.34448V6.45624L32.0574 14.8039Z" fill="#E5D2AB"/>
<path d="M32.0086 14.7692L31.957 14.7348L37.674 6.23242V6.34418L32.0086 14.7692Z" fill="#E4D1AA"/>
<path d="M31.9559 14.7351L31.9043 14.7007L37.6729 6.1123V6.23266L31.9559 14.7351Z" fill="#E3D0A9"/>
<path d="M31.9031 14.7011L31.8516 14.6667L37.6717 6.00098V6.11274L31.9031 14.7011Z" fill="#E2CFA8"/>
<path d="M31.8543 14.6662L31.8027 14.6318L37.6745 5.88867V6.00043L31.8543 14.6662Z" fill="#E1CFA7"/>
<path d="M31.8016 14.6322L31.75 14.5978L37.6733 5.77734V5.8891L31.8016 14.6322Z" fill="#E1CEA6"/>
<path d="M31.7488 14.5973L31.6973 14.5543L37.6722 5.66504V5.7768L31.7488 14.5973Z" fill="#E0CDA5"/>
<path d="M31.6961 14.5547L31.6445 14.5204L37.671 5.55371V5.66547L31.6961 14.5547Z" fill="#DFCCA4"/>
<path d="M31.6473 14.5208L31.5957 14.4864L37.6738 5.44238V5.55414L31.6473 14.5208Z" fill="#DECBA3"/>
<path d="M31.5946 14.4854L31.543 14.451L37.6726 5.32104V5.4414L31.5946 14.4854Z" fill="#DDCAA2"/>
<path d="M31.5438 14.4507L31.4922 14.4163L37.6476 5.25195L37.6734 5.26915V5.32073L31.5438 14.4507Z" fill="#DDC9A1"/>
<path d="M37.5899 5.21509L31.4316 14.3865L31.4816 14.42L37.6399 5.24863L37.5899 5.21509Z" fill="#DCC8A0"/>
<path d="M37.5411 5.17822L31.3828 14.3496L31.4328 14.3832L37.591 5.21177L37.5411 5.17822Z" fill="#DBC89F"/>
<path d="M37.4844 5.14136L31.3262 14.3127L31.3761 14.3463L37.5344 5.1749L37.4844 5.14136Z" fill="#DAC79E"/>
<path d="M37.4356 5.10498L31.2773 14.2764L31.3273 14.3099L37.4856 5.13853L37.4356 5.10498Z" fill="#D9C69D"/>
<path d="M37.3868 5.06884L31.2285 14.2402L31.2785 14.2738L37.4367 5.10239L37.3868 5.06884Z" fill="#D9C59C"/>
<path d="M37.3301 5.03174L31.1719 14.2031L31.2218 14.2367L37.3801 5.06528L37.3301 5.03174Z" fill="#D8C49B"/>
<path d="M37.2813 4.9956L31.123 14.167L31.173 14.2005L37.3313 5.02915L37.2813 4.9956Z" fill="#D7C39A"/>
<path d="M37.2325 4.96728L31.0742 14.1387L31.1242 14.1722L37.2825 5.00083L37.2325 4.96728Z" fill="#D6C299"/>
<path d="M37.1758 4.93115L31.0176 14.1025L31.0675 14.1361L37.2258 4.9647L37.1758 4.93115Z" fill="#D5C298"/>
<path d="M37.1212 4.88916L30.9629 14.0605L31.0129 14.0941L37.1711 4.9227L37.1212 4.88916Z" fill="#D5C197"/>
<path d="M37.0665 4.86084L30.9082 14.0322L30.9582 14.0658L37.1164 4.89438L37.0665 4.86084Z" fill="#D4C096"/>
<path d="M37.0176 4.82373L30.8594 13.9951L30.9093 14.0287L37.0676 4.85728L37.0176 4.82373Z" fill="#D3BF95"/>
<path d="M36.961 4.78662L30.8027 13.958L30.8527 13.9916L37.011 4.82017L36.961 4.78662Z" fill="#D2BE94"/>
<path d="M36.9122 4.75048L30.7539 13.9219L30.8039 13.9554L36.9621 4.78403L36.9122 4.75048Z" fill="#D1BD93"/>
<path d="M36.8633 4.72314L30.7051 13.8945L30.755 13.9281L36.9133 4.75669L36.8633 4.72314Z" fill="#D1BC92"/>
<path d="M36.8067 4.68603L30.6484 13.8574L30.6984 13.891L36.8567 4.71958L36.8067 4.68603Z" fill="#D0BB91"/>
<path d="M36.7579 4.6499L30.5996 13.8213L30.6496 13.8548L36.8078 4.68345L36.7579 4.6499Z" fill="#CFBB90"/>
<path d="M36.7091 4.61377L30.5508 13.7852L30.6007 13.8187L36.759 4.64732L36.7091 4.61377Z" fill="#CEBA8F"/>
<path d="M36.6505 4.57666L30.4922 13.748L30.5421 13.7816L36.7004 4.61021L36.6505 4.57666Z" fill="#CDB98E"/>
<path d="M36.6016 4.54052L30.4434 13.7119L30.4933 13.7455L36.6516 4.57407L36.6016 4.54052Z" fill="#CCB88D"/>
<path d="M36.5528 4.50439L30.3945 13.6758L30.4445 13.7093L36.6028 4.53794L36.5528 4.50439Z" fill="#CCB78C"/>
<path d="M36.4884 4.47119L30.3301 13.6426L30.38 13.6761L36.5383 4.50473L36.4884 4.47119Z" fill="#CBB68B"/>
<path d="M36.4356 4.44189L30.2773 13.6133L30.3273 13.6468L36.4856 4.47544L36.4356 4.44189Z" fill="#CAB58A"/>
<path d="M36.3868 4.40576L30.2285 13.5771L30.2785 13.6107L36.4367 4.43931L36.3868 4.40576Z" fill="#C9B589"/>
<path d="M36.338 4.36865L30.1797 13.54L30.2296 13.5736L36.3879 4.4022L36.338 4.36865Z" fill="#C8B488"/>
<path d="M36.2813 4.33154L30.123 13.5029L30.173 13.5365L36.3313 4.36509L36.2813 4.33154Z" fill="#C8B387"/>
<path d="M36.2325 4.29541L30.0742 13.4668L30.1242 13.5003L36.2825 4.32895L36.2325 4.29541Z" fill="#C7B286"/>
<path d="M36.1837 4.25928L30.0254 13.4307L30.0754 13.4642L36.2336 4.29282L36.1837 4.25928Z" fill="#C6B185"/>
<path d="M36.127 4.23095L29.9688 13.4023L30.0187 13.4359L36.177 4.2645L36.127 4.23095Z" fill="#C5B084"/>
<path d="M36.0782 4.19385L29.9199 13.3652L29.9699 13.3988L36.1282 4.22739L36.0782 4.19385Z" fill="#C4AF83"/>
<path d="M36.0294 4.15771L29.8711 13.3291L29.9211 13.3626L36.0793 4.19126L36.0294 4.15771Z" fill="#C4AE82"/>
<path d="M35.9727 4.12158L29.8145 13.293L29.8644 13.3265L36.0227 4.15513L35.9727 4.12158Z" fill="#C3AE81"/>
<path d="M35.9239 4.08545L29.7656 13.2568L29.8156 13.2904L35.9739 4.11899L35.9239 4.08545Z" fill="#C2AD80"/>
<path d="M35.8653 4.04443L29.707 13.2158L29.757 13.2494L35.9153 4.07798L35.8653 4.04443Z" fill="#C1AC7F"/>
<path d="M35.8184 4.0083L29.6602 13.1797L29.7101 13.2132L35.8684 4.04185L35.8184 4.0083Z" fill="#C0AB7E"/>
<path d="M35.7559 3.98584L29.5977 13.1572L29.6476 13.1908L35.8059 4.01939L35.7559 3.98584Z" fill="#C0AA7D"/>
<path d="M35.7071 3.94971L29.5488 13.1211L29.5988 13.1546L35.7571 3.98325L35.7071 3.94971Z" fill="#BFA97C"/>
<path d="M35.6583 3.91357L29.5 13.085L29.55 13.1185L35.7082 3.94712L35.6583 3.91357Z" fill="#BEA87B"/>
<path d="M35.6016 3.87646L29.4434 13.0479L29.4933 13.0814L35.6516 3.91001L35.6016 3.87646Z" fill="#BDA77A"/>
<path d="M35.5528 3.84033L29.3945 13.0117L29.4445 13.0453L35.6028 3.87388L35.5528 3.84033Z" fill="#BCA779"/>
<path d="M35.504 3.8042L29.3457 12.9756L29.3957 13.0091L35.5539 3.83775L35.504 3.8042Z" fill="#BCA678"/>
<path d="M35.4473 3.77588L29.2891 12.9473L29.339 12.9808L35.4973 3.80942L35.4473 3.77588Z" fill="#BBA577"/>
<path d="M35.3985 3.73877L29.2402 12.9102L29.2902 12.9437L35.4485 3.77232L35.3985 3.73877Z" fill="#BAA476"/>
<path d="M35.3497 3.70263L29.1914 12.874L29.2414 12.9076L35.3996 3.73618L35.3497 3.70263Z" fill="#B9A375"/>
<path d="M35.3008 3.66748L29.1426 12.8389L29.1925 12.8724L35.3508 3.70103L35.3008 3.66748Z" fill="#B8A274"/>
<path d="M35.2364 3.62549L29.0781 12.7969L29.1281 12.8304L35.2864 3.65903L35.2364 3.62549Z" fill="#B8A173"/>
<path d="M35.1876 3.5874L29.0293 12.7588L29.0793 12.7923L35.2375 3.62095L35.1876 3.5874Z" fill="#B7A172"/>
<path d="M35.1387 3.55127L28.9805 12.7227L29.0304 12.7562L35.1887 3.58481L35.1387 3.55127Z" fill="#B6A071"/>
<path d="M35.0762 3.53076L28.918 12.7021L28.9679 12.7357L35.1262 3.56431L35.0762 3.53076Z" fill="#B59F70"/>
<path d="M35.0294 3.49463L28.8711 12.666L28.9211 12.6996L35.0793 3.52817L35.0294 3.49463Z" fill="#B49E6F"/>
<path d="M34.9786 3.45849L28.8203 12.6299L28.8703 12.6634L35.0285 3.49204L34.9786 3.45849Z" fill="#B49D6D"/>
<path d="M28.8172 12.6288L28.7656 12.5944L34.9125 3.44727H34.9554L34.9812 3.45586L28.8172 12.6288Z" fill="#B39C6C"/>
<path d="M28.7664 12.5944L28.7148 12.5601L34.8359 3.44727H34.9133L28.7664 12.5944Z" fill="#B29B6B"/>
<path d="M28.7156 12.5601L28.6641 12.5257L34.7593 3.44727H34.8367L28.7156 12.5601Z" fill="#B19A6A"/>
<path d="M28.6629 12.5257L28.6113 12.4913L34.6894 3.44727H34.7582L28.6629 12.5257Z" fill="#B09A69"/>
<path d="M28.6102 12.4913L28.5586 12.4483L34.6109 3.44727H34.6882L28.6102 12.4913Z" fill="#B09968"/>
<path d="M28.5613 12.4483L28.5098 12.4139L34.5362 3.44727H34.6136L28.5613 12.4483Z" fill="#AF9867"/>
<path d="M28.5086 12.4139L28.457 12.3795L34.4577 3.44727H34.5351L28.5086 12.4139Z" fill="#AE9766"/>
<path d="M28.4559 12.3795L28.4043 12.3451L34.3792 3.44727H34.4566L28.4559 12.3795Z" fill="#AD9665"/>
<path d="M28.4051 12.3451L28.3535 12.3107L34.3026 3.44727H34.38L28.4051 12.3451Z" fill="#AC9564"/>
<path d="M28.3543 12.3107L28.3027 12.2764L34.2346 3.44727H34.3034L28.3543 12.3107Z" fill="#AC9463"/>
<path d="M28.3016 12.2764L28.25 12.242L34.1561 3.44727H34.2335L28.3016 12.2764Z" fill="#AB9462"/>
<path d="M28.2508 12.242L28.1992 12.2076L34.0795 3.44727H34.1569L28.2508 12.242Z" fill="#AA9361"/>
<path d="M28.1989 12.2076L28.1387 12.1732L34.0018 3.44727H34.0792L28.1989 12.2076Z" fill="#A99260"/>
<path d="M28.1395 12.1732L28.0879 12.1388L33.9252 3.44727H34.0026L28.1395 12.1732Z" fill="#A8915F"/>
<path d="M28.0867 12.1388L28.0352 12.1044L33.8467 3.44727H33.9241L28.0867 12.1388Z" fill="#A8905E"/>
<path d="M28.034 12.1044L27.9824 12.07L33.7768 3.44727H33.8456L28.034 12.1044Z" fill="#A78F5D"/>
<path d="M27.9852 12.07L27.9336 12.027L33.7022 3.44727H33.7795L27.9852 12.07Z" fill="#A68E5C"/>
<path d="M27.9324 12.027L27.8809 11.9927L33.6236 3.44727H33.701L27.9324 12.027Z" fill="#A58D5B"/>
<path d="M27.8817 11.9927L27.8301 11.9583L33.5471 3.44727H33.6244L27.8817 11.9927Z" fill="#A48D5A"/>
<path d="M27.8289 11.9583L27.7773 11.9239L33.4685 3.44727H33.5459L27.8289 11.9583Z" fill="#A48C59"/>
<path d="M27.7781 11.9239L27.7266 11.8895L33.4006 3.44727H33.4693L27.7781 11.9239Z" fill="#A38B58"/>
<path d="M27.7254 11.8895L27.6738 11.8551L33.322 3.44727H33.3994L27.7254 11.8895Z" fill="#A28A57"/>
<path d="M27.6746 11.8551L27.623 11.8207L33.2455 3.44727H33.3228L27.6746 11.8551Z" fill="#A18956"/>
<path d="M27.6238 11.8207L27.5723 11.7863L33.1689 3.44727H33.2463L27.6238 11.8207Z" fill="#A08855"/>
<path d="M27.5719 11.7863L27.5117 11.7519L33.0912 3.44727H33.1685L27.5719 11.7863Z" fill="#A08754"/>
<path d="M27.5106 11.7519L27.459 11.7176L33.0126 3.44727H33.09L27.5106 11.7519Z" fill="#9F8653"/>
<path d="M27.4598 11.7176L27.4082 11.6832L32.9447 3.44727H33.0134L27.4598 11.7176Z" fill="#9E8652"/>
<path d="M27.409 11.6832L27.3574 11.6488L32.8681 3.44727H32.9455L27.409 11.6832Z" fill="#9D8551"/>
<path d="M27.3563 11.6488L27.3047 11.6144L32.7896 3.44727H32.8669L27.3563 11.6488Z" fill="#9C8450"/>
<path d="M27.3055 11.6144L27.2539 11.5714L32.713 3.44727H32.7904L27.3055 11.6144Z" fill="#9C834F"/>
<path d="M27.2528 11.5714L27.2012 11.537L32.6345 3.44727H32.7118L27.2528 11.5714Z" fill="#9B824E"/>
<path d="M27.202 11.537L27.1504 11.5026L32.5665 3.44727H32.6353L27.202 11.537Z" fill="#9A814D"/>
<path d="M27.1512 11.5026L27.0996 11.4682L32.4899 3.44727H32.5673L27.1512 11.5026Z" fill="#99804C"/>
<path d="M27.0985 11.4682L27.0469 11.4339L32.4114 3.44727H32.4888L27.0985 11.4682Z" fill="#98804B"/>
<path d="M27.0457 11.4339L26.9941 11.3995L32.3329 3.44727H32.4102L27.0457 11.4339Z" fill="#977F4A"/>
<path d="M26.9949 11.3995L26.9434 11.3651L32.2563 3.44727H32.3337L26.9949 11.3995Z" fill="#977E49"/>
<path d="M26.9442 11.3651L26.8926 11.3307L32.1797 3.44727H32.2571L26.9442 11.3651Z" fill="#967D48"/>
<path d="M26.8922 11.3307L26.832 11.2963L32.1106 3.44727H32.1793L26.8922 11.3307Z" fill="#957C47"/>
<path d="M26.8309 11.2963L26.7793 11.2619L32.032 3.44727H32.1094L26.8309 11.2963Z" fill="#947B46"/>
<path d="M26.7801 11.2619L26.7285 11.2275L31.9555 3.44727H32.0328L26.7801 11.2619Z" fill="#937A45"/>
<path d="M26.7293 11.2275L26.6777 11.1931L31.8789 3.44727H31.9563L26.7293 11.2275Z" fill="#937944"/>
<path d="M26.6766 11.1931L26.625 11.1502L31.8004 3.44727H31.8778L26.6766 11.1931Z" fill="#927943"/>
<path d="M26.6258 11.1502L26.5742 11.1158L31.7238 3.44727H31.8012L26.6258 11.1502Z" fill="#917842"/>
<path d="M26.575 11.1158L26.5234 11.0814L31.6558 3.44727H31.7246L26.575 11.1158Z" fill="#907741"/>
<path d="M26.5223 11.0814L26.4707 11.047L31.5773 3.44727H31.6547L26.5223 11.0814Z" fill="#8F7640"/>
<path d="M26.4696 11.047L26.418 11.0126L31.4988 3.44727H31.5762L26.4696 11.047Z" fill="#8F753F"/>
<path d="M26.4207 11.0126L26.3691 10.9782L31.4242 3.44727H31.5015L26.4207 11.0126Z" fill="#8E743E"/>
<path d="M26.368 10.9782L26.3164 10.9438L31.3456 3.44727H31.423L26.368 10.9782Z" fill="#8D733D"/>
<path d="M26.3153 10.9438L26.2637 10.9094L31.2757 3.44727H31.3445L26.3153 10.9438Z" fill="#8C733C"/>
<path d="M26.2633 10.9094L26.2031 10.8751L31.198 3.44727H31.2753L26.2633 10.9094Z" fill="#8B723B"/>
<path d="M26.2059 10.8751L26.1543 10.8407L31.1233 3.44727H31.2007L26.2059 10.8751Z" fill="#8B713A"/>
<path d="M26.1531 10.8407L26.1016 10.8063L31.0448 3.44727H31.1222L26.1531 10.8407Z" fill="#8A7039"/>
<path d="M26.1016 10.8063V10.7977V10.6945L30.9674 3.44727H31.0448L26.1016 10.8063Z" fill="#896F38"/>
<path d="M26.1016 10.5828L30.8901 3.44727H30.9674L26.1016 10.6945V10.5828Z" fill="#886E37"/>
<path d="M26.1016 10.471L30.8213 3.44727H30.8901L26.1016 10.5828V10.471Z" fill="#876D36"/>
<path d="M26.1016 10.3506L30.7439 3.44727H30.8213L26.1016 10.471V10.3506Z" fill="#876C35"/>
<path d="M26.1016 10.2389L30.6666 3.44727H30.7439L26.1016 10.3506V10.2389Z" fill="#866C34"/>
<path d="M26.1016 10.1271L30.5892 3.44727H30.6666L26.1016 10.2389V10.1271Z" fill="#856B33"/>
<path d="M26.1016 10.0154L30.5118 3.44727H30.5892L26.1016 10.1271V10.0154Z" fill="#846A32"/>
<path d="M26.1016 9.90359L30.443 3.44727H30.5118L26.1016 10.0154V9.90359Z" fill="#836931"/>
<path d="M26.1016 9.79183L30.3657 3.44727H30.443L26.1016 9.90359V9.79183Z" fill="#836830"/>
<path d="M26.1016 9.68007L30.2883 3.44727H30.3657L26.1016 9.79183V9.68007Z" fill="#82672F"/>
<path d="M26.1016 9.55971L30.2109 3.44727H30.2883L26.1016 9.68007V9.55971Z" fill="#81662E"/>
<path d="M26.1016 9.44795L30.1335 3.44727H30.2109L26.1016 9.55971V9.44795Z" fill="#80652D"/>
<path d="M26.1016 9.33619L30.0562 3.44727H30.1335L26.1016 9.44795V9.33619Z" fill="#7F652C"/>
<path d="M26.1016 9.22443L29.9874 3.44727H30.0562L26.1016 9.33619V9.22443Z" fill="#7F642B"/>
<path d="M26.1016 9.11267L29.91 3.44727H29.9874L26.1016 9.22443V9.11267Z" fill="#7E632A"/>
<path d="M26.1016 9.00091L29.8326 3.44727H29.91L26.1016 9.11267V9.00091Z" fill="#7D6229"/>
<path d="M29.8326 3.44727L26.1016 9.00091V3.44727H29.8326Z" fill="#7D6229"/>
</g>
<path d="M38.8932 0.360352L37.3457 6.21489L38.8932 0.360352Z" fill="#030325"/>
<mask id="mask1_1392_21245" style="mask-type:luminance" maskUnits="userSpaceOnUse" x="26" y="3" width="12" height="13">
<path d="M26.1016 10.0927L26.2477 9.8778L34.5954 3.44727C34.8963 4.02326 35.3519 4.4961 35.9107 4.81418C36.4179 5.20965 37.0369 5.45036 37.6731 5.51054L34.8791 15.6722L34.7329 15.8871C34.3976 15.9473 34.0452 15.8785 33.7701 15.6808C32.876 15.0876 33.4606 14.2193 32.5579 13.6261C31.6552 13.0329 31.0964 13.884 30.2023 13.2908C29.3082 12.6976 29.9014 11.8293 29.0073 11.2361C28.1133 10.6429 27.5373 11.5026 26.6518 10.9008C26.3681 10.7117 26.1703 10.4194 26.1102 10.0841L26.1016 10.0927Z" fill="white"/>
</mask>
<g mask="url(#mask1_1392_21245)">
<path d="M37.8188 5.33887C37.9564 5.38185 38.0939 5.42484 38.2315 5.46782C38.1885 7.47092 35.8501 12.7581 35.8071 14.7612C35.7985 15.2942 35.8157 15.8358 35.7641 16.3602C35.7297 16.6525 35.575 16.9276 35.4718 17.2113C35.4374 17.2457 35.403 17.2801 35.3687 17.3145H35.3773C35.1022 17.3918 34.8357 17.4692 34.5605 17.5466C34.6379 16.7986 34.7153 16.0507 34.8013 15.3028C35.042 13.0761 37.5695 7.56548 37.8102 5.33887H37.8188Z" fill="#CBA275"/>
<path d="M25.6277 10.6776C25.6277 10.265 25.6277 9.85233 25.6191 9.43968C25.7653 9.26774 25.8856 9.02702 26.0576 8.93246C28.0435 7.90942 32.3248 3.61093 34.3193 2.61368C34.3709 2.58789 34.431 2.59649 34.4912 2.58789C34.5772 2.73404 34.6718 2.87159 34.7577 3.01774C34.6374 3.06932 34.4998 3.09511 34.3881 3.16389C32.2302 4.57379 27.7856 9.27634 25.6277 10.6862V10.6776Z" fill="#F3D9B6"/>
<path d="M28.929 12.0012C28.8688 12.0442 28.8086 12.0786 28.7484 12.1216C27.3041 12.7664 26.1607 12.2419 25.6191 10.6773C27.777 9.26739 32.2216 4.56484 34.3795 3.15494C34.4912 3.08616 34.6202 3.05177 34.7491 3.00879C34.7749 3.00879 34.7921 3.02598 34.8179 3.02598C35.0328 3.2753 35.2478 3.5332 35.4627 3.78252C34.1903 5.20102 30.6312 9.90356 29.3674 11.3307C29.1955 11.5284 29.0665 11.7691 28.9204 11.9926L28.929 12.0012Z" fill="#F8D4A2"/>
<path d="M32.2218 14.6843C32.2304 14.6156 32.239 14.5468 32.2476 14.478C32.3508 14.2717 32.4625 14.0826 32.5399 13.8676C33.2277 11.9677 36.2022 6.78372 36.8814 4.88379C37.1909 5.03853 37.5004 5.19328 37.8099 5.34803C37.5691 7.57464 35.0416 13.0853 34.8009 15.3119C34.7235 16.0599 34.6376 16.8078 34.5602 17.5557C33.1933 17.5557 32.3078 16.7132 32.1616 15.2088C32.1444 15.0368 32.196 14.8649 32.2218 14.6843Z" fill="#DDAF7E"/>
<path d="M36.8902 4.87521C36.2024 6.77514 33.2365 11.9677 32.5487 13.859C32.4713 14.074 32.351 14.2631 32.2564 14.4694C30.9153 15.7332 29.1357 14.4866 28.9208 13.0509C28.8692 12.7157 28.9208 12.3546 28.938 12.0021C29.0841 11.7786 29.2131 11.5293 29.385 11.3401C30.6488 9.91304 34.2079 5.21049 35.4803 3.79199C35.9531 4.15307 36.4173 4.52273 36.8902 4.88381V4.87521Z" fill="#F0C897"/>
</g>
<path d="M11.014 7.27284C10.7733 7.22986 10.5326 7.22126 10.2919 7.27284C9.80187 7.376 9.415 7.71129 9.1313 8.14973C8.8476 8.58818 8.64128 9.12979 8.47793 9.75737C8.2888 10.4967 8.16844 11.365 8.11686 12.2849C7.38612 12.2247 6.70696 12.2161 6.08798 12.2591C5.26267 12.3193 4.54912 12.474 3.97312 12.7405C3.39712 13.007 2.94148 13.4197 2.76095 13.9785C2.57181 14.5631 2.76095 15.1735 3.07904 15.7237C3.40572 16.2825 3.88715 16.8069 4.45455 17.2281C4.58351 17.3227 4.74685 17.3485 4.893 17.2797C5.03915 17.2195 5.14231 17.082 5.1595 16.9272C5.1767 16.7725 5.10792 16.6178 4.97897 16.5232C4.50613 16.1707 4.08488 15.7151 3.83557 15.2852C3.58626 14.8554 3.51748 14.4685 3.59485 14.2536C3.68942 13.9699 3.91294 13.7292 4.35139 13.5314C4.78124 13.3251 5.40882 13.179 6.15675 13.1274C6.73275 13.0844 7.38612 13.093 8.09107 13.1532C8.07388 13.9699 8.09967 14.821 8.16844 15.6721C6.13096 17.744 4.81562 19.7213 4.40297 21.3375C4.14506 22.3347 4.28261 23.246 4.82422 23.865C5.19389 24.2863 5.70971 24.5442 6.3115 24.5871C6.91329 24.6301 7.59245 24.484 8.42635 24.1745C8.5811 24.1229 8.68426 23.994 8.71865 23.8392C8.74444 23.6845 8.68426 23.5211 8.5639 23.4266C8.44355 23.3234 8.27161 23.2976 8.12546 23.3578C7.35173 23.6415 6.77573 23.7446 6.37168 23.7189C5.96762 23.6931 5.71831 23.5641 5.47759 23.289C5.1681 22.9451 5.03915 22.3691 5.24547 21.5696C5.55496 20.3402 6.61239 18.6552 8.2802 16.8327C8.33179 17.2109 8.38337 17.5892 8.45214 17.9589C8.93357 20.6325 9.81906 22.9623 10.8507 24.6043C11.3665 25.4296 11.9253 26.0744 12.5099 26.5129C13.0945 26.9513 13.7393 27.1834 14.3755 27.0545H14.4012L14.427 27.0373C14.9858 26.8482 15.4243 26.4011 15.7596 25.8079C16.0949 25.2147 16.3356 24.4754 16.4903 23.6071C16.8084 21.8705 17.2984 27.0201 16.8858 24.5614C16.8428 24.3206 16.6193 24.1659 16.3786 24.2003C16.1378 24.2433 15.9831 24.4668 16.0175 24.7075C16.4129 27.0717 15.9143 21.8447 15.622 23.4437C15.4759 24.2433 15.2524 24.9052 14.9858 25.3781C14.7279 25.8337 14.4442 26.0916 14.1605 26.1948C13.8424 26.2464 13.4728 26.1518 13.0171 25.8079C12.5615 25.464 12.0543 24.888 11.5728 24.1315C10.6186 22.6184 9.75029 20.3746 9.28605 17.7955C9.18289 17.2195 9.10551 16.6092 9.04534 15.9988C9.4236 15.6205 9.82766 15.2336 10.2575 14.8468C10.6874 14.4685 11.1172 14.1074 11.5471 13.7722C11.6502 13.7979 11.762 13.8237 11.8651 13.8495C12.3208 13.9699 12.785 14.116 13.2493 14.2708C15.7424 15.0961 17.883 16.2051 19.2929 17.3055C19.9979 17.8557 20.5223 18.4059 20.8146 18.8874C21.1069 19.3688 21.1671 19.7471 21.0639 20.0565C20.9693 20.3402 20.763 20.581 20.3847 20.7873C20.0065 20.9936 19.4563 21.157 18.7599 21.2257C18.5966 21.2343 18.459 21.3289 18.3902 21.475C18.3215 21.6212 18.3387 21.7931 18.4332 21.9221C18.5278 22.051 18.6911 22.1198 18.8459 22.094C19.6196 22.0167 20.2816 21.8361 20.806 21.5524C21.3304 21.2601 21.7173 20.8475 21.8978 20.323C22.1041 19.7041 21.9322 19.0421 21.5625 18.4231C21.1929 17.8041 20.5997 17.2023 19.8345 16.6092C18.3129 15.4228 16.1034 14.288 13.5244 13.4369C13.1633 13.3165 12.8022 13.2133 12.4411 13.1102C13.3696 12.4568 14.2809 11.9152 15.1234 11.5197C16.6279 10.8062 17.926 10.5483 18.6396 10.7202C18.9061 10.7804 19.0866 10.8922 19.2242 11.0383C19.6626 11.5369 19.8603 12.5858 18.7685 13.712C18.6482 13.8237 18.6052 13.9871 18.6482 14.1418C18.6911 14.2966 18.8115 14.4169 18.9662 14.4513C19.121 14.4857 19.2843 14.4341 19.3961 14.3138C20.7286 12.9382 20.6598 11.322 19.8861 10.4451C19.6196 10.1442 19.2499 9.9465 18.8459 9.85193C17.7541 9.59402 16.3442 9.9551 14.7537 10.7202C13.6791 11.236 12.5185 11.941 11.3579 12.8179C10.5326 12.6202 9.7245 12.4654 8.96796 12.3708C9.01954 11.4768 9.1313 10.6429 9.30324 9.96369C9.44939 9.39629 9.63853 8.93206 9.83626 8.61397C10.0426 8.30448 10.2403 8.15833 10.4466 8.11534C10.567 8.08955 10.6874 8.08955 10.8163 8.11534C11.2548 8.20131 11.9769 8.89767 12.6647 9.87772C12.7506 10.0067 12.9054 10.0841 13.0601 10.0669C13.2149 10.0583 13.3524 9.9551 13.4212 9.81754C13.49 9.6714 13.4728 9.50805 13.3782 9.3791C12.6561 8.34746 11.9425 7.45338 10.9797 7.26424L11.014 7.27284ZM10.4896 13.5314C10.2231 13.7464 9.96521 13.9699 9.69871 14.2106C9.44939 14.4341 9.21727 14.6576 8.98516 14.8726C8.95936 14.331 8.95077 13.7979 8.95937 13.2649C9.44939 13.3337 9.96521 13.4197 10.4896 13.5314ZM12.699 15.4142C12.0027 15.225 11.2805 15.6377 11.0828 16.3341C10.8851 17.0304 11.3063 17.7526 12.0027 17.9503C12.699 18.148 13.4212 17.7268 13.6189 17.0304C13.8167 16.3341 13.3954 15.6119 12.699 15.4142Z" fill="black"/>
<path d="M0.653557 40.0614L39.1766 36.0552C39.4861 36.0208 39.7182 35.7629 39.7096 35.4534L39.4689 26.0311C39.4603 25.6873 39.1594 25.4208 38.8155 25.4551L4.72852 29.2378C4.5222 29.2636 1.77116 35.1181 1.68519 35.3159L0.0517685 39.2361C-0.128768 39.6487 0.206514 40.1044 0.653557 40.0614Z" fill="black"/>
<path d="M13.9099 24.0368L33.2101 23.1943L32.2042 29.1177L6.29297 30.0117L13.9099 24.0368Z" fill="black"/>
<path d="M8.63075 19.3866L15.5943 18.6387L18.4141 33.6404L11.3732 34.3883L11.2786 32.6517L9.77415 32.8151L9.14657 34.629L1.63281 35.4286L8.63075 19.3866Z" fill="#0E1020"/>
<path d="M22.789 33.4682C10.9596 32.6343 16.0748 13.8843 28.9359 17.985L28.3169 25.3698L28.2395 25.3183L27.4314 32.1958C25.7034 32.9954 24.3537 33.4768 22.789 33.4682ZM25.2392 23.745C23.4854 23.4871 21.7402 26.8399 24.1474 27.0377C25.4369 27.1322 26.5803 25.6449 27.4486 24.7423C26.8124 24.2608 25.9871 23.6934 25.2478 23.745H25.2392Z" fill="#0E1020"/>
<path d="M31.8338 32.4882C30.1832 32.5484 27.9995 31.7918 26.1426 30.9064L28.6271 25.6794C25.8503 22.0085 29.3578 16.8159 33.9658 16.4634C36.1065 16.1711 38.1955 16.7987 40.362 17.7874L38.0322 22.6962C42.047 26.6165 37.0693 32.7891 31.8424 32.4882H31.8338Z" fill="#0E1020"/>
<path d="M37.3362 21.7674C37.276 21.8877 37.1213 21.9307 37.0095 21.8533C36.2358 21.3031 35.2815 21.0452 34.3531 21.1398C33.8458 21.1914 33.4504 21.5353 33.4504 21.9221C33.4504 22.309 33.7255 22.4637 34.8689 22.6185C35.7716 22.7388 36.5195 22.971 37.0095 23.2375C37.895 23.7533 38.4452 24.8365 38.4452 26.0315C38.4452 28.6707 35.8661 31.0865 32.7196 31.4218C31.1464 31.5937 29.6763 31.3272 27.7334 30.4933C27.6216 30.4417 27.5701 30.3128 27.6216 30.201L29.1605 26.96C29.2207 26.831 29.4012 26.788 29.5044 26.8912C30.2953 27.6305 31.4473 28.0002 32.5735 27.8798C33.2183 27.8111 33.6567 27.4672 33.6567 27.0201C33.6567 26.5731 33.287 26.3152 32.4359 26.2034C31.5075 26.1089 31.0432 25.9971 30.5446 25.8166C29.3238 25.3351 28.6791 24.2863 28.6791 22.7904C28.6791 20.1511 31.0776 17.8128 34.0694 17.4947C35.6598 17.3227 36.9923 17.5291 38.7547 18.2426C38.8751 18.2856 38.9267 18.4232 38.8665 18.5435L37.3362 21.776V21.7674Z" fill="#FAA82A"/>
<path d="M8.25274 33.6918L3.65336 34.1818C3.48142 34.199 3.36106 34.0271 3.42983 33.8723L9.28437 20.4525C9.31876 20.3837 9.38754 20.3321 9.46491 20.3235L14.5629 19.7819C14.6747 19.7733 14.7778 19.8507 14.8036 19.9624L17.1592 32.5054C17.185 32.6344 17.0904 32.7547 16.9701 32.7633L12.577 33.2276C12.4481 33.2448 12.3449 33.1502 12.3363 33.0212L12.2675 31.7403C12.2675 31.6113 12.1472 31.5168 12.0268 31.534L9.17261 31.8349C9.08664 31.8435 9.01787 31.9036 8.99208 31.981L8.45047 33.5371C8.42468 33.6144 8.3473 33.6746 8.26993 33.6832L8.25274 33.6918ZM11.7173 28.5594C11.8377 28.5508 11.9236 28.4391 11.915 28.3187L11.7345 26.1952C11.7173 25.9459 11.6915 25.5935 11.6915 25.2754C11.6915 24.7853 11.6915 24.6478 11.7517 24.2093C11.6571 24.2179 11.5798 24.2867 11.5626 24.3813C11.4164 25.0261 11.2789 25.5161 11.0038 26.2812L10.2386 28.4047C10.1871 28.5594 10.3074 28.7142 10.4708 28.697L11.7173 28.568V28.5594Z" fill="#FAA82A"/>
<path d="M27.4757 23.1177C27.4585 23.281 27.2866 23.3756 27.1404 23.2896C26.3839 22.8254 25.6446 22.6621 24.8279 22.748C23.2718 22.9114 21.9393 24.39 21.9393 25.9289C21.9393 27.3044 23.0225 28.2157 24.4582 28.061C25.2663 27.975 25.9541 27.6655 26.6246 27.0809C26.7794 26.9519 27.0115 27.0809 26.9857 27.27L26.5043 31.3708C26.4957 31.4482 26.4441 31.5169 26.3753 31.5427C25.1631 32.0757 24.4152 32.2993 23.5039 32.4024C21.9909 32.5658 20.5552 32.2047 19.4118 31.3794C17.9589 30.3134 17.2109 28.6627 17.2109 26.5565C17.2109 22.387 20.2973 18.9482 24.4496 18.5097C25.507 18.398 26.5902 18.4581 27.6649 18.7074C27.768 18.7332 27.8454 18.8278 27.8282 18.9396L27.4843 23.1005L27.4757 23.1177Z" fill="#FAA82A"/>
<g opacity="0.9">
<path d="M27.8098 18.8618L27.4058 18.9736C27.1393 18.9736 26.8814 18.965 26.6321 18.9736C25.9271 18.9048 24.9642 18.8618 24.2077 18.9994C22.9955 19.2229 20.6658 20.1514 19.7975 21.2432C16.4876 24.4585 18.0523 29.9433 18.0523 29.9433L17.7514 29.3588C17.3903 28.5506 17.2012 27.6222 17.2012 26.5733C17.2012 22.4038 20.2875 18.965 24.4398 18.5266C25.4973 18.4148 26.5805 18.475 27.6551 18.7243C27.7325 18.7415 27.7926 18.8017 27.8098 18.8704V18.8618Z" fill="white"/>
</g>
<path d="M12.3367 17.649C12.8732 17.649 13.3081 17.214 13.3081 16.6775C13.3081 16.141 12.8732 15.7061 12.3367 15.7061C11.8002 15.7061 11.3652 16.141 11.3652 16.6775C11.3652 17.214 11.8002 17.649 12.3367 17.649Z" fill="#FAA82A"/>
<path d="M6.29355 10.9006C6.56893 10.9006 6.79217 10.6773 6.79217 10.4019C6.79217 10.1266 6.56893 9.90332 6.29355 9.90332C6.01816 9.90332 5.79492 10.1266 5.79492 10.4019C5.79492 10.6773 6.01816 10.9006 6.29355 10.9006Z" fill="#EE475F"/>
<path d="M15.1744 9.43182C15.4498 9.43182 15.673 9.20858 15.673 8.93319C15.673 8.65781 15.4498 8.43457 15.1744 8.43457C14.899 8.43457 14.6758 8.65781 14.6758 8.93319C14.6758 9.20858 14.899 9.43182 15.1744 9.43182Z" fill="#EE475F"/>
<path d="M3.04326 35.5655L5.22689 35.3506L5.08934 35.9094L3.54188 36.0641L3.36135 36.7949L4.71967 36.6573L4.58212 37.2075L3.2238 37.3451L2.90571 38.669L2.26953 38.7292L3.03466 35.5655H3.04326Z" fill="white"/>
<path d="M5.63953 35.2991L6.2929 35.2303L5.82007 37.1733C5.76849 37.3882 5.75129 37.5429 5.77708 37.6461C5.81147 37.818 5.95762 37.8868 6.21553 37.861C6.47344 37.8352 6.66257 37.7321 6.78293 37.5429C6.8603 37.4398 6.92048 37.2764 6.97206 37.0615L7.4449 35.1186L8.09827 35.0498L7.62543 36.9927C7.54806 37.328 7.4277 37.5945 7.28155 37.7922C7.00645 38.1533 6.61099 38.3596 6.07798 38.4112C5.54497 38.4628 5.23547 38.3253 5.12371 38.0072C5.07213 37.8266 5.08073 37.5687 5.1667 37.2334L5.63953 35.2905V35.2991Z" fill="white"/>
<path d="M10.9338 34.7744L10.7962 35.3332L9.88496 35.4278L9.25738 38.0327L8.61261 38.0928L9.24019 35.488L8.32031 35.5825L8.45786 35.0237L10.9338 34.7744Z" fill="white"/>
<path d="M11.3055 34.7405L11.9589 34.6717L11.4861 36.6147C11.4345 36.8296 11.4173 36.9843 11.4431 37.0875C11.4775 37.2594 11.6236 37.3282 11.8815 37.3024C12.1395 37.2766 12.3286 37.1735 12.4489 36.9843C12.5263 36.8812 12.5865 36.7178 12.6381 36.5029L13.1109 34.56L13.7643 34.4912L13.2914 36.4341C13.2141 36.7694 13.0937 37.0359 12.9476 37.2336C12.6725 37.5947 12.277 37.801 11.744 37.8526C11.211 37.9042 10.9015 37.7667 10.7897 37.4486C10.7381 37.268 10.7467 37.0101 10.8327 36.6748L11.3055 34.7319V34.7405Z" fill="white"/>
<path d="M16.317 34.3185C16.4202 34.3615 16.4976 34.4216 16.5491 34.5076C16.5921 34.585 16.6265 34.6624 16.6351 34.7569C16.6523 34.8515 16.6351 34.9633 16.6093 35.0836C16.5749 35.2298 16.4976 35.3845 16.3944 35.5392C16.2826 35.694 16.1365 35.8058 15.9559 35.8831C16.0849 35.9261 16.1623 36.0035 16.1967 36.1066C16.2311 36.2098 16.2225 36.3732 16.1623 36.5967L16.1107 36.8116C16.0763 36.9577 16.0591 37.0523 16.0591 37.1039C16.0591 37.1813 16.0849 37.2414 16.1365 37.2758L16.1193 37.3532L15.4143 37.422C15.4143 37.3532 15.4143 37.3016 15.4143 37.2586C15.4143 37.1727 15.4315 37.0781 15.4573 36.9921L15.5261 36.6998C15.5691 36.5021 15.5691 36.3646 15.5261 36.3044C15.4745 36.2442 15.3628 36.2184 15.1908 36.2356L14.5632 36.2958L14.2623 37.5337L13.6348 37.5939L14.3999 34.4302L15.8614 34.2841C16.0677 34.2669 16.2225 34.2841 16.3256 34.3185H16.317ZM14.8813 34.9203L14.675 35.7714L15.3628 35.7026C15.5003 35.6854 15.6035 35.6596 15.6808 35.6166C15.8184 35.5478 15.9044 35.4189 15.9474 35.2384C15.9903 35.0492 15.9645 34.9203 15.87 34.8687C15.8098 34.8343 15.7152 34.8257 15.5863 34.8429L14.8813 34.9117V34.9203Z" fill="white"/>
<path d="M19.5655 34.4651L17.9493 34.6284L17.786 35.299L19.2732 35.1528L19.1357 35.703L17.6484 35.8492L17.4507 36.6659L19.1443 36.4939L19.0067 37.0613L16.6855 37.2935L17.4507 34.1298L19.6945 33.9062L19.5569 34.4651H19.5655Z" fill="white"/>
<path d="M21.389 35.8661C21.3718 36.0123 21.389 36.1154 21.4234 36.1756C21.5007 36.296 21.6641 36.339 21.922 36.3132C22.0767 36.296 22.2057 36.2702 22.3088 36.2272C22.5066 36.1412 22.6269 36.0123 22.6699 35.8317C22.6957 35.7286 22.6699 35.6512 22.5925 35.5996C22.5152 35.5566 22.3862 35.5136 22.2057 35.4964L21.8962 35.4535C21.5867 35.4105 21.389 35.3503 21.2858 35.2815C21.1139 35.1526 21.0709 34.9376 21.1397 34.6282C21.2084 34.3445 21.3632 34.0951 21.6125 33.8888C21.8618 33.6825 22.1799 33.5621 22.5668 33.5191C22.8934 33.4848 23.1513 33.5449 23.3405 33.6997C23.5296 33.8544 23.5898 34.0951 23.5124 34.4304L22.902 34.4906C22.9364 34.3015 22.8848 34.1725 22.7559 34.1123C22.6699 34.0693 22.5496 34.0522 22.3948 34.0694C22.2229 34.0865 22.0853 34.1381 21.965 34.2155C21.8446 34.2929 21.7758 34.396 21.7414 34.5164C21.7157 34.6282 21.7414 34.7055 21.8274 34.7571C21.879 34.7915 22.0079 34.8173 22.2057 34.8517L22.7129 34.929C22.9364 34.9634 23.0912 35.0236 23.1857 35.1096C23.3319 35.2385 23.3749 35.4449 23.3061 35.7286C23.2373 36.0209 23.074 36.2702 22.8075 36.4851C22.541 36.7 22.2143 36.8204 21.8188 36.8634C21.4148 36.9064 21.1225 36.8376 20.9333 36.6742C20.7442 36.5109 20.6926 36.2616 20.7786 35.9349L21.389 35.8747V35.8661Z" fill="white"/>
<path d="M24.5008 33.743C24.8103 33.4593 25.1542 33.2959 25.5324 33.2615C26.0397 33.2099 26.3749 33.3475 26.5211 33.6742C26.6071 33.8547 26.6242 34.0439 26.5899 34.2416L25.9537 34.3018C25.9537 34.1556 25.9279 34.0439 25.8763 33.9751C25.7989 33.8461 25.6442 33.7945 25.4207 33.8203C25.1971 33.8461 24.9908 33.9579 24.8103 34.1642C24.6297 34.3705 24.5008 34.6542 24.4148 35.0067C24.3289 35.3592 24.3375 35.6171 24.432 35.7804C24.5266 35.9438 24.6813 36.0126 24.8963 35.9954C25.1112 35.9696 25.3003 35.8836 25.4551 35.7203C25.541 35.6343 25.6184 35.5053 25.7044 35.3334L26.3405 35.2732C26.203 35.6257 25.9967 35.918 25.713 36.1587C25.4379 36.3994 25.1198 36.537 24.7673 36.5714C24.3289 36.6143 24.028 36.5026 23.8474 36.2361C23.6669 35.9696 23.6411 35.5741 23.77 35.0669C23.9076 34.5167 24.1483 34.0782 24.5008 33.7516V33.743Z" fill="white"/>
<path d="M26.5898 36.3048L27.355 33.1411L27.9912 33.0809L27.6989 34.2845L28.8852 34.1641L29.1775 32.9606L29.8137 32.9004L29.0486 36.0641L28.4124 36.1243L28.7563 34.7144L27.5699 34.8347L27.226 36.2446L26.5898 36.3048Z" fill="white"/>
<path d="M32.0843 35.4798C31.792 35.7463 31.431 35.901 30.9925 35.9526C30.5541 35.9956 30.2532 35.9096 30.0812 35.6861C29.8405 35.411 29.7975 34.9983 29.9351 34.4309C30.0726 33.8549 30.3392 33.3993 30.7174 33.0812C31.0097 32.8147 31.3708 32.6599 31.8092 32.6084C32.2477 32.5654 32.5486 32.6513 32.7205 32.8749C32.9612 33.1328 33.0042 33.554 32.8667 34.13C32.7291 34.6974 32.4712 35.1445 32.0843 35.4798ZM31.8006 35.0413C31.9984 34.835 32.1359 34.5513 32.2219 34.1988C32.3079 33.8463 32.2993 33.5798 32.1961 33.3993C32.0929 33.2187 31.921 33.1414 31.6631 33.1672C31.4138 33.193 31.1817 33.3133 30.9839 33.5196C30.7862 33.726 30.64 34.0097 30.5541 34.3707C30.4681 34.7232 30.4767 34.9983 30.5799 35.1703C30.683 35.3508 30.8636 35.4282 31.1129 35.4024C31.3622 35.3766 31.5943 35.2648 31.7834 35.0499L31.8006 35.0413Z" fill="white"/>
<path d="M35.3851 35.1536C35.0928 35.4201 34.7318 35.5748 34.2933 35.6264C33.8549 35.6694 33.554 35.5834 33.382 35.3599C33.1413 35.0848 33.0983 34.6721 33.2359 34.1047C33.3734 33.5288 33.6399 33.0731 34.0182 32.755C34.3105 32.4885 34.6716 32.3338 35.11 32.2822C35.5485 32.2392 35.8494 32.3252 36.0213 32.5487C36.262 32.8066 36.305 33.2279 36.1674 33.8039C36.0299 34.3713 35.772 34.8183 35.3851 35.1536ZM35.1014 34.7151C35.2992 34.5088 35.4367 34.2251 35.5227 33.8726C35.6086 33.5202 35.6 33.2537 35.4969 33.0731C35.3937 32.8926 35.2218 32.8152 34.9639 32.841C34.7146 32.8668 34.4824 32.9871 34.2847 33.1935C34.087 33.3998 33.9494 33.6835 33.8549 34.0446C33.7689 34.397 33.7775 34.6721 33.8807 34.8441C33.9838 35.0246 34.1644 35.102 34.4137 35.0762C34.663 35.0504 34.8951 34.9387 35.0842 34.7237L35.1014 34.7151Z" fill="white"/>
<path d="M37.0366 32.1783L37.6728 32.1182L37.0452 34.7145L38.5755 34.5597L38.4379 35.1271L36.2715 35.342L37.0366 32.1783Z" fill="white"/>
<path d="M28.248 17.994L31.4547 17.1687L28.248 20.3238V17.994Z" fill="#0E1020"/>
<g opacity="0.9">
<path d="M14.7935 19.9624C14.7763 19.8507 14.6645 19.7733 14.5528 19.7819L9.45475 20.3235C9.37737 20.3235 9.3086 20.3837 9.27421 20.4525L3.41967 33.8723C3.36809 34.0013 3.43687 34.1388 3.55722 34.1732L9.71266 20.762L14.8193 20.1172L14.7935 19.9538V19.9624Z" fill="white"/>
</g>
<g opacity="0.9">
<path d="M33.3478 27.5963C33.1586 27.7425 32.8921 27.8371 32.5827 27.8714C31.4479 27.9918 30.2959 27.6221 29.5135 26.8828C29.4104 26.7796 29.2298 26.8226 29.1697 26.9516L27.8027 29.8316L27.8371 29.9261L29.4534 27.2353C29.4534 27.2353 30.7257 28.0778 32.127 28.0778C32.4881 28.0778 32.9179 27.9832 33.2102 27.8457C33.3822 27.7597 33.3908 27.8113 33.3564 27.5877L33.3478 27.5963Z" fill="white"/>
</g>
<g opacity="0.9">
<path d="M38.7202 18.2338C36.9578 17.5203 35.6253 17.314 34.0348 17.4859C31.0431 17.804 28.6445 20.1424 28.6445 22.7816C28.6445 24.0196 29.0916 24.9481 29.9341 25.5069C30.106 25.3521 29.9169 25.077 29.8481 25.0168C28.5586 23.8133 29.0916 21.6984 29.3925 21.1138C29.7535 20.4175 30.7336 19.2397 31.834 18.6379C33.2439 17.8728 34.5592 17.8212 35.8746 17.847C36.8718 17.8642 38.1958 18.3628 38.789 18.6121L38.8233 18.5347C38.8749 18.423 38.8233 18.2854 38.7116 18.2338H38.7202Z" fill="white"/>
</g>
</g>
<defs>
<clipPath id="clip0_1392_21245">
<rect width="40.3542" height="50" fill="white"/>
</clipPath>
</defs>
</svg>
