<svg width="17" height="17" viewBox="0 0 17 17" fill="none" xmlns="http://www.w3.org/2000/svg">
<path d="M9.94577 14.4271C12.7344 14.2417 14.9558 11.9889 15.1385 9.16067C15.1743 8.6072 15.1743 8.03403 15.1385 7.48056C14.9558 4.65233 12.7344 2.3995 9.94577 2.21413C8.99438 2.15089 8.00108 2.15102 7.05163 2.21413C4.26296 2.3995 2.04164 4.65233 1.85886 7.48056C1.82309 8.03403 1.82309 8.6072 1.85886 9.16067C1.92543 10.1907 2.38099 11.1445 2.9173 11.9498C3.2287 12.5136 3.02319 13.2173 2.69884 13.832C2.46497 14.2751 2.34804 14.4967 2.44193 14.6568C2.53582 14.8169 2.74554 14.822 3.16498 14.8322C3.99448 14.8524 4.55382 14.6172 4.99782 14.2898C5.24963 14.1041 5.37554 14.0113 5.46232 14.0006C5.5491 13.99 5.71988 14.0603 6.06137 14.2009C6.3683 14.3273 6.72467 14.4054 7.05163 14.4271C8.00108 14.4902 8.99438 14.4903 9.94577 14.4271Z" stroke="#FC465D" stroke-linejoin="round"/>
<path d="M7.5 6.85914C7.5 6.29269 7.94772 5.8335 8.5 5.8335C9.05228 5.8335 9.5 6.29269 9.5 6.85914C9.5 7.06332 9.44183 7.25356 9.34156 7.41339C9.0427 7.88974 8.5 8.34397 8.5 8.91042V9.16683" stroke="#FC465D" stroke-linecap="round"/>
<path d="M8.5 10.5H8.50599" stroke="#FC465D" stroke-linecap="round" stroke-linejoin="round"/>
</svg>
