<svg width="18" height="18" viewBox="0 0 18 18" fill="none" xmlns="http://www.w3.org/2000/svg">
<path d="M14.0625 1.6875H3.9375C3.34076 1.6875 2.76847 1.92455 2.34651 2.34651C1.92455 2.76847 1.6875 3.34076 1.6875 3.9375V11.925C1.6875 12.5217 1.92455 13.094 2.34651 13.516C2.76847 13.9379 3.34076 14.175 3.9375 14.175H6.48L7.68094 15.6774C7.83901 15.8755 8.03967 16.0355 8.26802 16.1454C8.49638 16.2554 8.74656 16.3124 9 16.3124C9.25344 16.3124 9.50362 16.2554 9.73198 16.1454C9.96033 16.0355 10.161 15.8755 10.3191 15.6774L11.52 14.175H14.0625C14.6592 14.175 15.2315 13.9379 15.6535 13.516C16.0754 13.094 16.3125 12.5217 16.3125 11.925V3.9375C16.3125 3.34076 16.0754 2.76847 15.6535 2.34651C15.2315 1.92455 14.6592 1.6875 14.0625 1.6875ZM15.1875 11.925C15.1875 12.2234 15.069 12.5095 14.858 12.7205C14.647 12.9315 14.3609 13.05 14.0625 13.05H11.25C11.1656 13.05 11.0823 13.0691 11.0062 13.1057C10.9302 13.1423 10.8634 13.1955 10.8107 13.2615L9.43987 14.9743C9.38538 15.0376 9.31787 15.0884 9.24196 15.1232C9.16604 15.158 9.08351 15.176 9 15.176C8.91649 15.176 8.83396 15.158 8.75804 15.1232C8.68213 15.0884 8.61462 15.0376 8.56013 14.9743L7.18931 13.2615C7.13665 13.1955 7.06981 13.1423 6.99376 13.1057C6.91771 13.0691 6.8344 13.05 6.75 13.05H3.9375C3.63913 13.05 3.35298 12.9315 3.142 12.7205C2.93103 12.5095 2.8125 12.2234 2.8125 11.925V3.9375C2.8125 3.63913 2.93103 3.35298 3.142 3.142C3.35298 2.93103 3.63913 2.8125 3.9375 2.8125H14.0625C14.3609 2.8125 14.647 2.93103 14.858 3.142C15.069 3.35298 15.1875 3.63913 15.1875 3.9375V11.925ZM13.5 5.625C13.5 5.77418 13.4407 5.91726 13.3352 6.02275C13.2298 6.12824 13.0867 6.1875 12.9375 6.1875H5.0625C4.91332 6.1875 4.77024 6.12824 4.66475 6.02275C4.55926 5.91726 4.5 5.77418 4.5 5.625C4.5 5.47582 4.55926 5.33274 4.66475 5.22725C4.77024 5.12176 4.91332 5.0625 5.0625 5.0625H12.9375C13.0867 5.0625 13.2298 5.12176 13.3352 5.22725C13.4407 5.33274 13.5 5.47582 13.5 5.625ZM13.5 7.875C13.5 8.02418 13.4407 8.16726 13.3352 8.27275C13.2298 8.37824 13.0867 8.4375 12.9375 8.4375H5.0625C4.91332 8.4375 4.77024 8.37824 4.66475 8.27275C4.55926 8.16726 4.5 8.02418 4.5 7.875C4.5 7.72582 4.55926 7.58274 4.66475 7.47725C4.77024 7.37176 4.91332 7.3125 5.0625 7.3125H12.9375C13.0867 7.3125 13.2298 7.37176 13.3352 7.47725C13.4407 7.58274 13.5 7.72582 13.5 7.875ZM13.5 10.125C13.5 10.2742 13.4407 10.4173 13.3352 10.5227C13.2298 10.6282 13.0867 10.6875 12.9375 10.6875H5.0625C4.91332 10.6875 4.77024 10.6282 4.66475 10.5227C4.55926 10.4173 4.5 10.2742 4.5 10.125C4.5 9.97582 4.55926 9.83274 4.66475 9.72725C4.77024 9.62176 4.91332 9.5625 5.0625 9.5625H12.9375C13.0867 9.5625 13.2298 9.62176 13.3352 9.72725C13.4407 9.83274 13.5 9.97582 13.5 10.125Z" fill="#575757"/>
</svg>
