<svg width="25" height="24" viewBox="0 0 25 24" fill="none" xmlns="http://www.w3.org/2000/svg">
<g clip-path="url(#clip0_1587_17194)">
<path d="M18.353 0H7.44389C3.82894 0 0.898438 2.9305 0.898438 6.54545V17.4545C0.898438 21.0695 3.82894 24 7.44389 24H18.353C21.9679 24 24.8984 21.0695 24.8984 17.4545V6.54545C24.8984 2.9305 21.9679 0 18.353 0Z" fill="#F3E6FA"/>
<path d="M6.15135 15.896C6.86435 17.13 8.42135 17.386 9.84735 17.28C10.5963 18.828 11.6763 19.792 12.8993 19.792C14.1223 19.792 15.2023 18.828 15.9513 17.28C17.3663 17.384 18.9313 17.134 19.6473 15.896C20.2573 14.837 19.9643 13.422 18.9993 12C19.9643 10.578 20.2583 9.16301 19.6473 8.10401C18.9363 6.87401 17.3713 6.61501 15.9513 6.72001C15.2013 5.17201 14.1223 4.20801 12.8993 4.20801C11.6763 4.20801 10.5963 5.17201 9.84735 6.72001C8.41935 6.61501 6.86135 6.87501 6.15135 8.10401C5.54035 9.16301 5.83335 10.578 6.79835 12C5.83335 13.422 5.54035 14.837 6.15135 15.896ZM10.0473 15.081C10.8733 15.627 11.1523 15.742 11.6673 15.999C11.2557 16.1207 10.8365 16.2149 10.4123 16.281C10.2723 15.911 10.1503 15.507 10.0473 15.081ZM12.8993 18.875C12.1063 18.875 11.3723 18.216 10.8053 17.152C11.4853 17.027 12.1883 16.815 12.8993 16.542C13.5771 16.8094 14.2781 17.0136 14.9933 17.152C14.4263 18.216 13.6913 18.875 12.8993 18.875ZM15.3863 16.281C14.9619 16.2153 14.5423 16.1214 14.1303 16C14.6923 15.72 14.9343 15.621 15.7503 15.082C15.6473 15.508 15.5253 15.912 15.3853 16.282L15.3863 16.281ZM18.8533 15.438C18.4813 16.081 17.5613 16.416 16.3293 16.385C16.5672 15.7012 16.7413 14.9969 16.8493 14.281C17.4493 13.797 17.9753 13.289 18.4153 12.774C19.0483 13.793 19.2473 14.754 18.8533 15.438ZM16.9933 11.071C17.3153 11.377 17.6073 11.689 17.8613 12C17.592 12.3281 17.3021 12.6387 16.9933 12.93C17.0333 12.258 17.0343 11.743 16.9933 11.071ZM18.8533 8.56301C19.2483 9.24601 19.0483 10.207 18.4153 11.226C17.9409 10.6765 17.4167 10.172 16.8493 9.71901C16.741 9.00244 16.5666 8.29744 16.3283 7.61301C17.2463 7.58801 18.3933 7.76801 18.8533 8.56301ZM15.7513 8.91901C14.9253 8.37301 14.6463 8.25801 14.1313 8.00201C14.5603 7.87501 14.9773 7.78201 15.3863 7.71901C15.5263 8.08901 15.6483 8.49301 15.7513 8.91901ZM12.8993 5.12501C13.6913 5.12501 14.4263 5.78401 14.9933 6.84801C14.3133 6.97301 13.6103 7.18501 12.8993 7.45801C12.2216 7.19068 11.5206 6.98648 10.8053 6.84801C11.3723 5.78401 12.1063 5.12501 12.8993 5.12501ZM10.4123 7.71901C10.8366 7.78502 11.2559 7.87957 11.6673 8.00201C11.1043 8.28201 10.8633 8.38001 10.0473 8.91901C10.1503 8.49301 10.2713 8.08901 10.4123 7.71901ZM9.80935 10.216C10.8723 9.40201 11.8093 8.89601 12.8993 8.44101C14.0055 8.88894 15.0451 9.48615 15.9893 10.216C16.1393 11.373 16.1533 12.529 15.9893 13.784C14.9263 14.598 13.9893 15.104 12.8993 15.559C11.7932 15.1111 10.7536 14.5139 9.80935 13.784C9.65184 12.5999 9.65184 11.4001 9.80935 10.216ZM6.94535 8.56301C7.40435 7.76801 8.54935 7.58801 9.47035 7.61301C9.23187 8.29743 9.05712 9.00243 8.94835 9.71901C8.34935 10.203 7.82335 10.711 7.38335 11.226C6.75035 10.207 6.55035 9.24601 6.94535 8.56301ZM8.80535 12.929C8.49611 12.6379 8.20553 12.3277 7.93535 12C8.18935 11.688 8.48135 11.377 8.80335 11.071C8.76335 11.742 8.76335 12.257 8.80335 12.929H8.80535ZM7.38335 12.774C7.82335 13.29 8.34935 13.797 8.94835 14.281C9.06735 15.039 9.24335 15.747 9.46835 16.385C8.23535 16.415 7.31635 16.081 6.94535 15.437C6.55035 14.754 6.75035 13.793 7.38335 12.774Z" fill="#6A039A"/>
<path d="M12.9014 14.292C13.5093 14.292 14.0922 14.0505 14.5221 13.6207C14.9519 13.1909 15.1934 12.6079 15.1934 12C15.1934 11.3921 14.9519 10.8092 14.5221 10.3793C14.0922 9.94949 13.5093 9.70801 12.9014 9.70801C12.2935 9.70801 11.7105 9.94949 11.2807 10.3793C10.8509 10.8092 10.6094 11.3921 10.6094 12C10.6094 12.6079 10.8509 13.1909 11.2807 13.6207C11.7105 14.0505 12.2935 14.292 12.9014 14.292Z" fill="#6A039A"/>
</g>
<defs>
<clipPath id="clip0_1587_17194">
<rect width="24" height="24" fill="white" transform="translate(0.898438)"/>
</clipPath>
</defs>
</svg>
