<svg width="24" height="25" viewBox="0 0 24 25" fill="none" xmlns="http://www.w3.org/2000/svg">
<path d="M9.59844 5.2999C9.59844 3.97442 10.673 2.8999 11.9984 2.8999C13.3239 2.8999 14.3984 3.97442 14.3984 5.2999V19.6999C14.3984 21.0254 13.3239 22.0999 11.9984 22.0999C10.673 22.0999 9.59844 21.0254 9.59844 19.6999V5.2999ZM11.9984 4.0999C11.3357 4.0999 10.7984 4.63716 10.7984 5.2999V19.6999C10.7984 20.3626 11.3357 20.8999 11.9984 20.8999C12.6612 20.8999 13.1984 20.3626 13.1984 19.6999V5.2999C13.1984 4.63716 12.6612 4.0999 11.9984 4.0999ZM2.39844 14.8999C2.39844 13.5744 3.47295 12.4999 4.79844 12.4999C6.12392 12.4999 7.19844 13.5744 7.19844 14.8999V19.6999C7.19844 21.0254 6.12392 22.0999 4.79844 22.0999C3.47295 22.0999 2.39844 21.0254 2.39844 19.6999V14.8999ZM4.79844 13.6999C4.1357 13.6999 3.59844 14.2372 3.59844 14.8999V19.6999C3.59844 20.3626 4.1357 20.8999 4.79844 20.8999C5.46118 20.8999 5.99844 20.3626 5.99844 19.6999V14.8999C5.99844 14.2372 5.46118 13.6999 4.79844 13.6999ZM19.1984 7.6999C17.873 7.6999 16.7984 8.77442 16.7984 10.0999V19.6999C16.7984 21.0254 17.873 22.0999 19.1984 22.0999C20.5239 22.0999 21.5984 21.0254 21.5984 19.6999V10.0999C21.5984 8.77442 20.5239 7.6999 19.1984 7.6999ZM17.9984 10.0999C17.9984 9.43716 18.5357 8.8999 19.1984 8.8999C19.8612 8.8999 20.3984 9.43716 20.3984 10.0999V19.6999C20.3984 20.3626 19.8612 20.8999 19.1984 20.8999C18.5357 20.8999 17.9984 20.3626 17.9984 19.6999V10.0999Z" fill="#1C1C1C"/>
</svg>
