<svg width="20" height="20" viewBox="0 0 20 20" fill="none" xmlns="http://www.w3.org/2000/svg">
<path d="M2.91602 15C2.91602 13.8215 2.91602 13.2322 3.28213 12.8661C3.64825 12.5 4.2375 12.5 5.41602 12.5H5.83268C6.61836 12.5 7.01119 12.5 7.25527 12.7441C7.49935 12.9882 7.49935 13.381 7.49935 14.1667V18.3333H2.91602V15Z" stroke="#575757" stroke-width="0.96" stroke-linecap="round" stroke-linejoin="round"/>
<path d="M12.5 15.8334C12.5 15.0477 12.5 14.6549 12.7441 14.4108C12.9882 14.1667 13.381 14.1667 14.1667 14.1667H14.5833C15.7618 14.1667 16.3511 14.1667 16.7172 14.5329C17.0833 14.899 17.0833 15.4882 17.0833 16.6667V18.3334H12.5V15.8334Z" stroke="#575757" stroke-width="0.96" stroke-linecap="round" stroke-linejoin="round"/>
<path d="M1.66602 18.3335H18.3327" stroke="#575757" stroke-width="0.96" stroke-linecap="round" stroke-linejoin="round"/>
<path d="M7.5 13.3335C7.5 12.155 7.5 11.5657 7.86612 11.1996C8.23223 10.8335 8.82149 10.8335 10 10.8335C11.1785 10.8335 11.7678 10.8335 12.1339 11.1996C12.5 11.5657 12.5 12.155 12.5 13.3335V18.3335H7.5V13.3335Z" stroke="#575757" stroke-width="0.96" stroke-linecap="round" stroke-linejoin="round"/>
<path d="M10.5752 2.14814L11.1618 3.33104C11.2418 3.49571 11.4551 3.65365 11.6351 3.68389L12.6983 3.862C13.3783 3.97626 13.5382 4.47361 13.0483 4.96425L12.2217 5.79765C12.0817 5.93879 12.0051 6.211 12.0484 6.40591L12.285 7.43758C12.4717 8.25419 12.0417 8.57007 11.3251 8.14329L10.3286 7.54848C10.1486 7.44094 9.85197 7.44094 9.66866 7.54848L8.6721 8.14329C7.95885 8.57007 7.52556 8.25082 7.71221 7.43758L7.94885 6.40591C7.99218 6.211 7.91552 5.93879 7.77554 5.79765L6.94896 4.96425C6.46235 4.47361 6.619 3.97626 7.29892 3.862L8.36214 3.68389C8.53879 3.65365 8.7521 3.49571 8.83209 3.33104L9.41869 2.14814C9.73865 1.50628 10.2586 1.50628 10.5752 2.14814Z" stroke="#575757" stroke-width="0.96" stroke-linecap="round" stroke-linejoin="round"/>
</svg>
