<svg width="17" height="17" viewBox="0 0 17 17" fill="none" xmlns="http://www.w3.org/2000/svg">
<path d="M10.2196 4.0837C12.0864 2.75381 13.6111 2.16291 14.142 2.6939C14.673 3.22489 14.0821 4.7495 12.7522 6.61635M3.91964 10.3837C2.58975 12.2505 1.99885 13.7751 2.52983 14.3061C3.06082 14.8371 4.58544 14.2462 6.45229 12.9163M12.7522 6.61635C11.9973 7.67607 11.0043 8.84607 9.84314 10.0072C8.68201 11.1683 7.51201 12.1614 6.45229 12.9163M12.7522 6.61635C12.9992 7.19468 13.1359 7.83138 13.1359 8.5C13.1359 11.151 10.9869 13.3 8.33594 13.3C7.66731 13.3 7.03062 13.1633 6.45229 12.9163M11.7301 5.10589C10.8614 4.23726 9.66142 3.7 8.33594 3.7C5.68497 3.7 3.53594 5.84903 3.53594 8.5C3.53594 9.82548 4.0732 11.0255 4.94182 11.8941" stroke="#8A00CA" stroke-linecap="round" stroke-linejoin="round"/>
</svg>
