<svg width="16" height="16" viewBox="0 0 16 16" fill="none" xmlns="http://www.w3.org/2000/svg">
<path d="M2.04044 10.1285L2.28394 8.74759C2.57172 7.11543 2.71561 6.29936 3.28544 5.81618C3.85527 5.33301 4.67382 5.33301 6.31091 5.33301H9.68779C11.3249 5.33301 12.1434 5.33301 12.7133 5.81618C13.2831 6.29936 13.427 7.11543 13.7148 8.74759L13.9583 10.1285C14.3565 12.3871 14.5556 13.5163 13.9425 14.258C13.3293 14.9997 12.1966 14.9997 9.93128 14.9997H6.06742C3.80205 14.9997 2.66937 14.9997 2.05624 14.258C1.4431 13.5163 1.64221 12.3871 2.04044 10.1285Z" stroke="#575757" stroke-width="1.25"/>
<path d="M5 5.33325L5.11188 3.99071C5.23705 2.48863 6.49271 1.33325 8 1.33325C9.50729 1.33325 10.7629 2.48863 10.8881 3.99071L11 5.33325" stroke="#575757" stroke-width="1.25"/>
<path d="M10 7.33333C9.91332 8.27539 9.04378 9 8 9C6.95622 9 6.08668 8.27539 6 7.33333" stroke="#575757" stroke-width="1.25" stroke-linecap="round"/>
</svg>
