<svg width="24" height="25" viewBox="0 0 24 25" fill="none" xmlns="http://www.w3.org/2000/svg">
<path d="M11 8.5L13 8.5" stroke="#1C1C1C" stroke-width="1.5" stroke-linecap="round"/>
<path d="M2 11.5C2 8.20017 2 6.55025 3.02513 5.52513C4.05025 4.5 5.70017 4.5 9 4.5H10C13.2998 4.5 14.9497 4.5 15.9749 5.52513C17 6.55025 17 8.20017 17 11.5V13.5C17 16.7998 17 18.4497 15.9749 19.4749C14.9497 20.5 13.2998 20.5 10 20.5H9C5.70017 20.5 4.05025 20.5 3.02513 19.4749C2 18.4497 2 16.7998 2 13.5V11.5Z" stroke="#1C1C1C" stroke-width="1.5"/>
<path d="M17 9.40585L17.1259 9.30196C19.2417 7.55623 20.2996 6.68336 21.1498 7.10482C22 7.52628 22 8.92355 22 11.7181V13.2819C22 16.0765 22 17.4737 21.1498 17.8952C20.2996 18.3166 19.2417 17.4438 17.1259 15.698L17 15.5941" stroke="#1C1C1C" stroke-width="1.5" stroke-linecap="round"/>
</svg>
